<?xml version="1.0" standalone="no"?>
<!DOCTYPE svg PUBLIC "-//W3C//DTD SVG 20010904//EN"
 "http://www.w3.org/TR/2001/REC-SVG-20010904/DTD/svg10.dtd">
<svg version="1.0" xmlns="http://www.w3.org/2000/svg"
 width="900.000000pt" height="900.000000pt" viewBox="0 0 900.000000 900.000000"
 preserveAspectRatio="xMidYMid meet">
<metadata>
Created by potrace 1.14, written by Peter Selinger 2001-2017
</metadata>
<g transform="translate(0.000000,900.000000) scale(0.100000,-0.100000)"
fill="#000000" stroke="none">
<path d="M0 8809 l0 -192 40 6 c27 3 43 1 51 -9 9 -11 15 -7 31 24 10 20 22
60 25 87 4 33 12 55 26 66 13 11 20 28 19 47 0 17 5 33 13 36 10 3 12 15 8 41
-5 29 -3 34 9 30 11 -5 17 2 20 23 l4 30 -123 1 -123 2 0 -192z"/>
<path d="M6674 8968 c-17 -18 -47 -54 -68 -80 -20 -27 -52 -64 -71 -83 l-33
-36 67 -34 c124 -62 299 -163 353 -203 76 -57 216 -198 261 -264 44 -64 45
-56 -31 -163 -65 -92 -110 -163 -117 -186 -4 -12 -1 -40 6 -61 12 -39 13 -39
25 -16 11 20 13 21 19 6 9 -22 25 -23 25 -2 0 15 2 15 25 0 30 -20 46 -21 19
-1 -19 14 -18 14 4 15 12 0 22 -4 22 -9 0 -15 37 0 68 27 16 15 27 32 25 39
-3 9 3 9 26 0 36 -13 38 -22 14 -51 -18 -20 -18 -20 10 -2 19 12 38 15 57 11
40 -9 123 -85 172 -159 23 -34 60 -79 83 -101 45 -43 166 -241 226 -370 42
-90 74 -183 66 -191 -3 -3 -31 -12 -64 -20 -32 -9 -107 -31 -168 -49 -171 -53
-155 -60 -176 75 -26 170 -61 279 -136 430 -47 91 -70 101 -160 71 -63 -22
-251 -122 -297 -159 -16 -12 -31 -21 -33 -19 -1 2 8 37 22 77 27 80 29 90 17
90 -5 0 -21 -42 -37 -92 -36 -118 -103 -248 -127 -248 -34 0 -7 -25 63 -59 46
-22 84 -50 115 -84 49 -55 98 -141 90 -160 -3 -9 -5 -8 -5 1 -1 17 -21 15 -21
-2 0 -7 7 -27 16 -42 l16 -29 -6 28 c-7 29 8 38 18 11 3 -9 6 -55 6 -102 0
-75 -4 -95 -29 -148 -39 -83 -87 -134 -188 -199 -66 -44 -91 -55 -121 -54 -30
2 -32 3 -9 6 20 3 27 10 26 26 0 16 -2 18 -7 7 -7 -16 -35 -20 -48 -7 -4 4 4
7 17 7 19 0 21 2 9 10 -9 6 -10 10 -3 10 6 0 18 6 25 13 23 21 70 42 89 39 24
-4 98 47 131 90 39 51 68 114 74 160 5 36 2 46 -15 62 -21 19 -24 19 -112 2
-135 -25 -139 -28 -140 -78 0 -39 -1 -41 -10 -18 -6 13 -13 20 -17 15 -14 -19
-51 -17 -64 4 -15 25 -43 26 -130 7 -35 -8 -79 -17 -99 -20 -39 -7 -79 -35
-80 -57 0 -8 -4 -4 -10 9 -12 30 -29 19 -29 -18 0 -21 -8 -35 -26 -46 -30 -20
-37 -15 -58 49 -20 59 -21 97 -2 97 31 0 55 35 60 88 4 53 -3 69 -42 91 -14 8
-15 12 -4 22 6 7 12 17 12 21 0 19 -28 4 -104 -58 -44 -36 -88 -71 -96 -77 -8
-7 -58 -46 -110 -88 -316 -251 -350 -264 -60 -22 282 235 350 294 350 303 0 5
-40 30 -90 56 -93 49 -167 111 -216 179 -15 22 -35 47 -44 55 -9 8 -52 62 -96
120 -43 58 -81 107 -85 110 -23 19 -121 178 -138 224 -20 54 -28 126 -15 139
9 9 117 -48 215 -113 81 -55 214 -169 340 -291 73 -72 169 -193 219 -279 38
-65 68 -93 56 -52 -10 33 -26 224 -26 312 0 76 -4 94 -26 134 -14 25 -29 46
-33 46 -8 0 -41 -186 -41 -231 0 -14 -3 -28 -6 -31 -3 -4 -60 49 -127 116
-124 124 -174 169 -282 248 -95 71 -90 54 -90 287 0 331 47 526 190 789 57
105 68 132 37 91 -52 -68 -135 -246 -182 -389 -40 -120 -61 -244 -69 -400 -4
-84 -10 -133 -16 -131 -5 3 -77 37 -160 77 -328 159 -635 250 -980 289 -33 4
-105 22 -160 40 -186 62 -347 96 -359 76 -4 -6 -17 -12 -29 -12 -12 -1 -4 -5
18 -9 22 -4 69 -15 105 -23 177 -43 183 -47 74 -48 -43 -1 -104 -5 -134 -9
-38 -6 2 -8 130 -7 l185 1 120 -47 c124 -49 280 -123 420 -201 44 -24 100 -55
125 -68 25 -12 57 -36 72 -52 15 -16 31 -25 38 -21 12 8 -20 45 -40 45 -5 0
-10 4 -10 8 0 11 -135 101 -238 162 -70 40 -185 95 -262 126 -34 14 -33 14 35
9 228 -16 613 -137 895 -281 165 -84 166 -86 174 -160 l7 -60 -98 48 c-129 63
-149 67 -164 36 -13 -30 18 -173 57 -257 13 -30 22 -56 19 -59 -3 -3 -5 0 -5
6 0 6 -6 17 -13 24 -16 16 -57 111 -57 132 0 8 -9 20 -21 26 -12 7 -18 18 -15
26 3 9 1 12 -5 9 -5 -4 -16 -1 -24 5 -9 7 -28 10 -45 6 -17 -3 -30 -1 -30 4 0
5 -10 10 -22 13 l-23 4 23 9 c21 9 22 12 8 23 -13 11 -17 11 -22 -3 -9 -23
-104 -23 -104 -1 0 12 -11 16 -42 16 -48 -1 -200 8 -295 16 -36 3 -63 9 -63
16 0 6 -16 -4 -35 -23 -31 -30 -33 -35 -18 -41 15 -6 14 -9 -10 -18 -16 -6
-45 -11 -66 -11 -20 0 -46 -7 -57 -15 -22 -17 -79 -21 -69 -5 4 6 16 8 27 4
17 -5 20 -3 14 11 -4 12 -2 16 8 12 8 -3 20 1 27 10 11 13 10 14 -11 11 -14
-1 -28 -7 -32 -13 -5 -6 -11 -6 -19 2 -12 12 -42 6 -34 -7 3 -4 -2 -11 -11
-14 -12 -4 -14 -1 -9 14 5 16 2 20 -15 20 -12 0 -18 5 -15 10 3 6 -1 10 -9 10
-9 0 -16 -4 -16 -10 0 -5 -7 -10 -15 -10 -8 0 -15 5 -15 10 0 6 5 10 10 10 18
0 10 19 -15 36 -24 15 -26 15 -43 -6 l-19 -23 -20 20 c-11 11 -33 23 -49 26
-16 3 -50 13 -76 22 -56 20 -121 11 -126 -18 -4 -19 -58 -77 -73 -77 -5 0 -9
-7 -9 -15 0 -8 -7 -15 -15 -15 -14 0 -14 -3 0 -30 l16 -30 -41 0 c-30 0 -39 3
-34 13 4 6 -2 4 -14 -7 -17 -15 -24 -16 -36 -6 -10 7 -27 9 -48 5 -18 -4 -30
-4 -26 0 8 8 -20 39 -44 48 -9 3 -19 0 -22 -9 -7 -18 -21 -18 -40 2 -9 8 -16
11 -16 5 0 -6 -5 -11 -11 -11 -6 0 -23 -11 -38 -25 -92 -88 -86 -85 -174 -85
-46 0 -100 -7 -122 -15 l-40 -14 33 -1 c23 0 32 -5 32 -16 0 -14 -9 -16 -55
-12 -30 3 -55 1 -55 -3 0 -4 -10 -11 -22 -15 -23 -7 -38 -21 -38 -37 0 -5 3
-6 8 -4 4 3 7 -5 7 -17 0 -17 -5 -22 -17 -18 -10 2 -18 -1 -18 -7 0 -6 4 -11
10 -11 5 0 7 -7 3 -16 -3 -8 -12 -13 -19 -10 -8 3 -14 -1 -14 -10 0 -9 -5 -12
-12 -8 -8 5 -9 0 -5 -15 3 -13 3 -20 0 -17 -4 3 -12 1 -20 -5 -9 -9 -13 -8
-13 0 0 6 5 11 10 11 6 0 10 7 10 15 0 9 -6 12 -16 8 -9 -3 -20 0 -24 7 -12
20 -43 4 -37 -19 3 -13 0 -18 -8 -15 -7 3 -25 -8 -41 -24 -16 -16 -36 -31 -44
-34 -13 -4 -12 -7 2 -21 9 -9 23 -17 30 -17 10 0 9 -3 -2 -10 -8 -5 -34 -10
-57 -10 l-43 0 0 -59 c0 -37 5 -61 12 -63 8 -3 9 -11 3 -24 -8 -18 -9 -18 -12
4 -3 12 -11 22 -20 22 -21 0 -91 -72 -76 -77 8 -3 6 -14 -8 -36 -24 -40 -24
-47 1 -47 18 0 20 -7 20 -64 0 -56 3 -67 22 -80 l22 -16 -22 0 c-19 0 -22 -5
-21 -42 0 -31 3 -37 8 -24 5 13 10 16 15 8 4 -6 0 -22 -7 -34 -8 -13 -18 -40
-21 -60 -7 -41 -26 -61 -26 -29 0 12 -4 21 -8 21 -10 0 -2 -69 9 -75 4 -3 4
-16 0 -29 -5 -12 -12 -48 -16 -79 -4 -32 -11 -60 -16 -63 -5 -3 -9 -16 -9 -30
0 -14 -7 -38 -15 -53 -8 -16 -11 -32 -7 -36 4 -3 -2 -13 -12 -21 -11 -8 -14
-14 -8 -14 7 0 12 -7 12 -16 0 -13 -6 -10 -25 10 -18 19 -25 22 -25 12 0 -9 3
-16 8 -16 7 0 32 -47 32 -62 0 -4 -4 -8 -10 -8 -5 0 -10 7 -10 15 0 19 -16 19
-24 0 -3 -8 0 -14 7 -12 6 1 13 -8 15 -21 2 -14 -1 -22 -10 -20 -7 2 -14 -7
-16 -19 -3 -18 -10 -23 -33 -23 -26 0 -29 -3 -29 -30 0 -16 -4 -30 -10 -30 -5
0 -10 7 -10 15 0 23 -27 29 -45 11 -11 -10 -33 -16 -63 -15 -26 0 -40 3 -32 6
22 9 50 44 44 55 -3 5 -20 8 -37 6 -29 -3 -32 0 -35 27 -2 24 -1 27 9 15 9
-13 10 -12 5 3 -3 10 -6 21 -6 23 0 3 -5 2 -12 -2 -7 -5 -9 -2 -5 9 3 9 11 35
17 59 6 24 15 52 19 63 5 11 18 43 29 70 58 140 29 125 -49 -25 -33 -63 -64
-117 -68 -120 -4 -3 -11 -17 -14 -32 -4 -15 -14 -33 -22 -41 -8 -8 -12 -17 -9
-19 10 -11 -89 -250 -107 -256 -4 -2 -6 -9 -3 -17 3 -7 1 -16 -5 -20 -6 -3
-11 -15 -11 -26 0 -13 -4 -18 -12 -13 -7 5 -9 2 -6 -8 4 -8 -6 -57 -22 -109
-17 -57 -29 -86 -32 -74 -3 11 -5 -2 -6 -30 -1 -61 -37 -180 -45 -150 -3 11
-3 0 0 -25 6 -53 -20 -237 -42 -299 -8 -24 -15 -52 -15 -62 0 -30 -16 -22 -47
21 -15 23 -33 48 -40 58 -7 9 -13 12 -13 6 0 -6 34 -67 75 -137 41 -69 75
-133 75 -141 0 -20 -141 -126 -166 -126 -45 1 -179 175 -213 278 -17 50 -16
52 87 129 85 65 84 54 21 198 -22 50 -41 100 -43 110 -2 11 -9 38 -15 60 -5
22 -13 69 -17 105 -7 71 9 129 69 260 39 86 87 211 87 227 0 88 -222 -265
-299 -474 -34 -94 -69 -173 -76 -173 -2 0 -2 15 0 33 l5 32 -11 -30 c-7 -16
-15 -34 -19 -40 -21 -28 -136 -502 -125 -513 4 -4 26 71 40 132 3 15 9 26 12
23 3 -4 -6 -55 -21 -114 -39 -163 -103 -486 -117 -588 -18 -136 1 -345 36
-391 10 -15 10 -5 -3 46 -20 82 -22 315 -3 420 49 282 182 806 194 770 3 -8
15 -60 27 -115 97 -441 379 -946 735 -1315 l123 -127 7 -64 c12 -119 75 -409
101 -472 37 -89 75 -160 80 -154 3 3 1 13 -4 24 -34 63 -102 260 -102 292 1
22 5 18 27 -24 35 -68 136 -209 192 -268 79 -83 222 -191 309 -232 70 -34 79
-41 60 -48 -16 -6 -19 -10 -10 -19 19 -19 14 -25 -20 -32 -26 -5 -30 -9 -18
-16 30 -19 -23 -10 -80 13 -108 45 -246 157 -309 250 -18 27 -35 46 -38 44 -8
-8 35 -84 69 -123 46 -52 183 -157 253 -193 33 -17 53 -31 45 -31 -49 0 -205
32 -262 53 -135 51 -375 101 -493 101 -149 1 -249 -44 -391 -176 -34 -32 -64
-58 -67 -58 -4 0 -68 63 -144 141 -76 78 -166 163 -200 190 l-61 49 34 96 c19
52 33 107 33 122 -1 21 -2 22 -6 7 -14 -59 -61 -177 -92 -230 -19 -33 -78
-127 -131 -210 -139 -216 -200 -326 -266 -484 -10 -24 -20 -38 -22 -32 -2 6
-8 9 -13 5 -5 -3 -5 6 1 20 7 19 6 25 -3 23 -7 -1 -11 3 -10 10 2 7 -13 23
-32 36 -40 27 -69 62 -79 95 -10 30 -59 54 -104 51 -21 -2 -46 2 -57 8 -25 13
-45 6 -46 -15 0 -11 -2 -12 -6 -4 -7 17 -23 15 -23 -3 0 -8 -4 -15 -9 -15 -5
0 -13 -9 -16 -21 -4 -11 -9 -18 -11 -16 -3 2 7 30 20 62 36 79 72 200 81 264
l7 53 34 -38 c18 -22 41 -53 50 -70 16 -28 16 -33 -1 -67 -27 -57 -12 -65 17
-10 34 62 162 209 329 379 122 123 129 133 129 170 0 62 29 270 51 364 11 47
42 135 69 197 48 107 59 147 43 156 -5 2 -43 0 -86 -5 -44 -5 -82 -7 -85 -3
-3 3 3 22 13 41 19 36 19 36 0 51 -15 11 -40 14 -100 11 -86 -5 -200 -44 -273
-93 -36 -25 -37 -25 -45 -5 -24 65 -27 65 -24 0 4 -69 -16 -159 -52 -240 -25
-55 -27 -127 -6 -300 14 -125 59 -300 95 -369 l18 -37 -54 0 c-42 -1 -61 -7
-89 -28 -25 -19 -36 -23 -39 -14 -2 7 -10 49 -19 94 -14 77 -74 220 -121 288
-17 25 -17 29 -3 37 61 35 116 92 151 158 48 92 43 124 -6 38 -20 -35 -49 -79
-64 -96 -34 -40 -104 -86 -114 -74 -23 24 -120 189 -120 204 0 10 16 53 36 96
l36 78 12 -32 c6 -17 14 -35 19 -39 4 -4 6 98 5 227 -3 262 3 333 35 381 41
60 133 44 183 -31 30 -47 42 -47 26 -1 -13 36 -14 33 73 215 136 283 226 494
251 589 47 174 -29 366 -168 426 -62 26 -113 24 -181 -10 -124 -62 -167 -178
-79 -211 20 -8 39 -3 90 21 81 38 117 38 154 3 26 -25 28 -33 28 -101 0 -60
-7 -97 -36 -181 -58 -171 -272 -600 -340 -681 -14 -16 -37 -59 -53 -97 -44
-104 -172 -363 -179 -363 -4 0 -20 11 -36 24 l-30 23 22 12 c28 15 29 62 2
156 -11 38 -20 78 -20 87 0 9 42 59 93 110 85 84 97 101 128 178 l34 85 0 175
c-1 167 -2 178 -29 250 -15 41 -33 80 -39 85 -7 7 -8 4 -2 -10 46 -120 65
-213 65 -318 0 -67 -6 -133 -16 -170 -33 -126 -107 -235 -205 -298 l-52 -33
-28 32 -29 32 0 -150 c0 -116 3 -150 13 -150 7 0 13 -9 14 -20 1 -11 -4 -20
-13 -20 -21 0 -17 -27 5 -33 16 -4 20 -18 26 -88 6 -67 13 -90 33 -117 23 -30
24 -35 10 -48 -14 -14 -19 -12 -52 16 l-36 32 0 -81 c0 -95 3 -95 79 -17 43
44 46 45 64 28 11 -9 45 -55 77 -102 152 -226 252 -417 269 -514 17 -94 13
-233 -8 -318 -56 -220 -248 -470 -431 -563 -27 -14 -50 -32 -50 -40 0 -20 9
-19 64 5 25 10 46 16 46 12 0 -4 -25 -16 -55 -27 -30 -10 -55 -24 -55 -32 0
-18 4 -18 168 27 208 56 426 83 640 78 150 -3 171 -5 209 -26 87 -46 69 -146
-38 -212 -68 -41 -290 -103 -331 -92 -5 1 -8 -2 -8 -7 0 -5 -19 -11 -42 -15
-23 -4 -47 -11 -53 -16 -5 -4 -24 -10 -40 -13 -17 -2 -43 -9 -58 -15 -43 -18
-46 -14 -7 7 19 11 38 17 42 14 5 -2 8 1 8 6 0 6 7 11 16 11 8 0 13 4 10 9 -3
4 6 6 19 3 25 -4 91 39 78 52 -10 9 -35 7 -29 -3 3 -5 -4 -9 -17 -9 -12 0 -67
-18 -122 -40 -107 -43 -252 -92 -271 -92 -6 0 -17 -7 -24 -15 -7 -8 -16 -12
-21 -9 -18 11 -48 -6 -43 -24 5 -13 4 -14 -4 -3 -8 11 -16 11 -45 2 l-36 -12
-1 -405 0 -404 35 0 c30 0 517 -132 592 -161 l26 -10 -49 -52 c-28 -29 -63
-69 -78 -90 -25 -34 -31 -37 -74 -37 -26 0 -90 9 -142 21 -52 11 -131 27 -175
34 -44 8 -92 17 -108 21 l-27 6 0 -301 0 -301 965 0 966 0 -40 73 -40 73 29
118 c16 65 32 121 35 124 3 4 39 10 78 13 40 4 97 10 127 14 l56 7 65 -123
c47 -88 68 -139 72 -175 3 -28 14 -67 23 -87 27 -56 63 -52 139 18 85 78 121
104 112 82 -4 -10 -3 -25 2 -35 5 -9 17 -36 26 -59 l18 -43 871 0 c478 0 866
4 861 8 -6 5 -104 84 -220 177 -115 93 -255 209 -310 260 -98 89 -305 267
-388 333 -23 18 -72 63 -109 98 -81 78 -86 102 -34 153 l35 33 68 -57 c120
-101 353 -326 347 -336 -3 -5 -12 -2 -20 6 -32 32 -48 7 -17 -27 34 -37 -13
-19 -78 32 -38 29 -66 45 -68 38 -5 -15 63 -76 144 -131 68 -46 148 -112 380
-312 88 -76 201 -169 251 -206 l91 -69 321 0 c312 0 321 1 327 20 8 25 25 25
58 0 14 -11 33 -20 44 -20 13 1 7 11 -26 40 -25 23 -37 40 -28 40 18 0 30 27
17 35 -6 4 -10 -1 -10 -9 0 -19 -16 -21 -23 -3 -4 8 -6 7 -7 -3 0 -8 -41 63
-90 159 -82 160 -88 176 -72 188 15 13 15 13 -4 4 -19 -9 -27 -2 -83 85 -43
68 -59 100 -53 111 8 13 10 13 15 -1 5 -11 3 -15 -5 -10 -7 4 -8 3 -4 -5 6 -9
11 -9 22 0 12 10 17 9 27 -1 8 -8 8 -11 1 -7 -13 8 -39 -19 -27 -26 4 -3 43
-12 86 -22 42 -9 80 -21 83 -26 3 -5 15 -9 27 -9 12 0 29 -5 37 -11 12 -9 11
-10 -6 -6 -12 2 -28 0 -35 -5 -9 -6 4 -8 40 -4 49 5 52 4 35 -9 -10 -8 -29
-15 -41 -15 -13 0 -23 -5 -23 -11 0 -8 13 -9 39 -5 26 4 41 2 43 -6 3 -7 9 -8
18 -3 10 6 9 11 -6 23 -19 14 -19 15 0 8 11 -4 45 -9 77 -13 36 -3 66 -13 78
-24 11 -11 31 -19 45 -19 13 0 26 -5 28 -11 2 -6 15 -9 28 -7 20 3 14 7 -30
22 -71 25 -48 32 49 15 103 -17 192 -45 166 -52 -11 -2 3 -6 30 -7 113 -6 125
-10 119 -44 -5 -29 10 -36 20 -10 15 39 16 2 2 -48 -9 -29 -23 -89 -31 -133
-15 -74 -18 -82 -63 -122 -46 -41 -46 -42 -20 -43 16 0 37 10 53 26 30 30 56
28 70 -4 10 -22 12 -22 221 -22 l212 0 42 64 c55 85 82 107 40 33 -18 -32 -30
-60 -27 -63 10 -11 70 75 112 165 34 70 49 92 61 87 8 -3 12 -2 9 4 -3 5 11
12 32 15 21 3 53 13 71 21 18 8 43 14 56 14 13 0 35 9 50 21 l26 20 1 -53 c1
-29 2 -57 3 -63 1 -5 6 -67 10 -137 10 -158 29 -173 26 -20 -2 59 -2 115 -1
124 1 14 19 10 134 -28 151 -51 270 -85 276 -78 2 2 -5 14 -16 27 -11 12 -26
33 -33 46 -11 21 -10 23 5 18 9 -4 21 -7 26 -7 5 0 18 -20 29 -45 20 -46 39
-60 105 -72 29 -6 30 -6 13 14 -24 26 -23 52 1 50 13 -1 23 -13 30 -39 13 -42
9 -40 181 -78 52 -11 111 -25 131 -30 20 -6 61 -9 90 -9 l54 1 -63 13 c-35 7
-67 16 -72 21 -14 14 -37 135 -51 272 -24 229 10 508 87 722 37 103 101 230
121 237 9 3 54 -6 100 -21 47 -15 87 -25 91 -22 7 7 -14 271 -22 285 -4 5 -37
12 -74 16 -107 10 -475 72 -592 100 -195 46 -336 65 -487 65 -162 0 -262 -14
-353 -50 -85 -33 -232 -193 -268 -290 l-9 -25 -15 30 c-20 39 -48 152 -48 193
0 53 62 163 122 217 97 88 173 105 478 107 207 1 206 15 -2 18 -64 1 -131 5
-147 9 -18 3 -60 32 -97 65 l-66 59 43 13 c234 68 349 115 547 228 45 25 83
46 85 46 2 0 7 -62 11 -137 4 -76 14 -183 24 -238 l17 -100 40 -10 c22 -5 42
-12 45 -15 3 -3 16 -6 30 -6 14 -1 61 -9 105 -17 208 -40 365 -69 420 -78 60
-9 185 -11 153 -2 -10 2 -18 8 -18 13 0 5 7 7 15 4 11 -5 13 -2 9 10 -8 20 -9
20 -29 0 -12 -12 -19 -14 -27 -6 -9 9 -3 23 22 53 l34 42 -35 -6 -34 -6 34 15
33 15 -6 137 c-4 75 -12 187 -17 247 -6 61 -14 157 -20 215 -5 58 -14 160 -19
227 -6 67 -17 137 -25 155 l-14 33 -1 -35 c0 -29 -13 -50 -70 -115 -39 -44
-70 -83 -70 -87 0 -5 -4 -8 -9 -8 -6 0 -1 20 10 45 11 25 17 54 14 65 -10 31
22 77 85 127 57 44 72 63 51 63 -33 0 -267 -233 -300 -299 -24 -47 -27 -48
-154 -61 -54 -5 -116 -13 -136 -16 -34 -5 -39 -3 -44 17 -18 68 44 184 95 178
48 -6 97 23 99 58 1 10 5 2 9 -17 l7 -35 2 40 c0 23 6 46 13 53 9 9 9 12 1 12
-13 0 -63 43 -63 54 0 4 7 0 16 -9 12 -11 20 -13 29 -5 9 8 15 8 20 0 3 -5 1
-10 -6 -10 -10 0 -10 -3 -2 -11 20 -20 41 -3 37 29 l-3 30 54 -5 c43 -5 62 -1
95 16 60 31 64 29 56 -35 -6 -57 7 -69 17 -15 8 38 58 69 119 72 45 3 49 1 74
-36 21 -31 24 -43 15 -57 -14 -22 -14 -107 -1 -213 5 -44 12 -136 15 -205 3
-69 10 -159 15 -200 6 -41 17 -140 26 -219 8 -80 17 -149 20 -153 3 -5 25 7
48 27 23 19 60 42 82 51 38 16 39 16 22 -3 -26 -28 -23 -32 20 -27 l37 5 -32
-15 c-33 -15 -44 -41 -22 -48 7 -2 -8 -19 -32 -38 -70 -55 -107 -94 -111 -115
-2 -15 5 -20 38 -26 69 -12 458 -39 587 -40 74 -1 108 -4 87 -8 l-35 -7 45
-12 45 -12 -45 4 -45 4 40 -13 c22 -7 32 -14 23 -14 -10 -1 -18 -7 -18 -13 0
-9 -3 -10 -8 -2 -4 6 -25 14 -47 17 l-40 6 40 -14 c29 -10 34 -14 17 -14 -13
-1 -20 -5 -17 -11 10 -16 -12 -12 -29 5 -20 20 -29 19 -22 -2 4 -13 -5 -25
-29 -42 -19 -13 -32 -27 -29 -32 11 -18 -245 -3 -441 25 -49 7 -93 10 -96 7
-6 -6 7 -181 19 -261 l7 -45 105 -37 c152 -53 324 -93 539 -124 37 -6 37 1 11
-139 -25 -140 1 -457 35 -423 3 3 0 18 -6 34 -7 16 -14 94 -16 174 -4 121 -1
162 17 250 24 119 98 348 138 430 l27 55 88 3 87 3 0 124 0 124 -34 3 -35 3
35 78 c35 80 46 139 22 119 -7 -6 -51 -20 -98 -32 -164 -42 -415 -121 -508
-161 -26 -12 -67 -19 -103 -19 l-60 0 62 70 c141 157 250 344 265 453 5 33 1
53 -15 84 -32 64 -127 160 -216 218 -73 49 -152 125 -285 278 l-33 38 65 62
c63 60 98 124 98 179 0 15 8 18 45 18 58 0 63 12 36 93 -12 35 -19 71 -16 79
6 15 198 194 379 351 56 49 167 147 249 219 l147 130 0 295 0 294 -122 -108
c-67 -59 -160 -141 -207 -182 -47 -40 -156 -137 -242 -215 -342 -311 -698
-627 -740 -656 l-29 -21 10 26 c14 38 12 102 -4 133 -8 15 -29 41 -48 58 -94
89 -205 86 -254 -7 -11 -23 -20 -28 -34 -24 -19 6 -19 4 -5 -29 8 -19 15 -53
15 -75 0 -22 5 -52 11 -67 26 -70 -17 -106 -137 -115 -61 -5 -90 -12 -109 -27
l-26 -21 -52 27 c-43 23 -64 27 -135 27 l-84 0 -34 -37 c-29 -32 -34 -45 -34
-87 l0 -48 -52 -7 c-41 -6 -59 -15 -89 -44 -57 -58 -84 -167 -58 -241 12 -35
85 -91 118 -91 12 0 21 -5 21 -11 0 -29 -29 -54 -118 -98 -131 -66 -263 -111
-343 -118 -57 -5 -74 -2 -121 19 -73 34 -138 121 -138 185 0 39 5 44 90 99 82
52 250 210 335 314 29 36 81 112 116 170 68 115 184 348 177 356 -3 2 -33 -49
-67 -113 -101 -194 -151 -275 -235 -380 -51 -65 -76 -83 -76 -57 0 10 6 14 15
10 8 -3 16 0 16 7 1 7 3 19 4 27 3 31 17 49 33 43 13 -5 14 -3 5 7 -7 7 -17 9
-25 4 -24 -15 -60 -15 -84 1 -22 14 -24 14 -25 -2 0 -12 -2 -13 -6 -5 -4 10
-9 9 -19 -5 -11 -13 -11 -8 2 22 53 128 68 168 96 240 16 44 36 118 43 165 7
47 24 144 38 215 23 118 58 364 73 505 7 69 14 77 14 16 0 -33 3 -45 11 -40
21 13 -8 337 -46 519 -8 39 -17 86 -20 105 -2 19 -7 53 -10 75 -6 48 -3 41 23
-50 28 -101 60 -256 72 -359 12 -94 37 -175 40 -126 1 14 4 19 7 13 2 -7 14
-13 25 -13 14 0 18 5 14 15 -4 10 3 20 19 27 14 6 25 17 25 25 0 7 3 13 8 13
4 0 17 21 29 48 12 26 38 65 57 86 20 22 38 48 42 58 3 10 10 18 15 18 5 0 9
8 10 18 0 10 3 12 6 4 3 -7 15 2 30 25 19 28 27 56 32 108 l6 70 6 -65 c12
-118 9 -294 -6 -420 -24 -192 -61 -404 -95 -540 -47 -193 -32 -186 20 10 60
223 110 545 110 711 0 82 7 129 39 263 22 89 45 193 51 229 7 37 16 69 20 72
4 2 25 -8 47 -24 l40 -29 5 -101 c4 -91 9 -109 41 -174 20 -40 47 -83 61 -96
28 -27 39 -22 76 30 18 25 19 30 5 60 l-14 34 -1 -37 c0 -21 -4 -38 -10 -38
-25 0 2 334 32 396 18 39 47 37 76 -6 22 -32 24 -42 18 -119 -4 -65 -12 -98
-36 -147 -17 -36 -37 -64 -45 -64 -17 0 -19 -9 -6 -29 6 -9 11 -10 15 -2 12
18 26 2 26 -29 0 -39 -51 -122 -114 -187 -28 -29 -45 -53 -38 -53 17 0 108 87
147 139 17 22 33 41 37 41 19 0 146 -513 135 -543 -3 -7 -17 14 -31 45 -15 32
-32 60 -37 63 -24 15 4 -63 49 -138 33 -53 34 -61 29 -117 -10 -93 -39 -137
-138 -211 -29 -21 -49 -39 -45 -39 14 0 71 43 124 94 56 54 64 48 32 -23 -11
-24 -18 -46 -16 -48 7 -8 62 117 75 172 19 73 32 105 44 105 7 0 7 -4 -1 -12
-17 -17 25 -51 95 -79 68 -26 253 -40 253 -19 0 7 11 10 28 9 35 -3 102 21
102 37 0 7 10 20 22 28 l22 16 -22 0 c-13 0 -22 -6 -22 -15 0 -9 -6 -12 -16
-8 -16 6 -16 7 0 18 11 9 16 28 16 64 0 44 -3 51 -20 51 -17 0 -19 3 -8 19 7
11 16 17 20 15 4 -3 8 2 8 10 0 9 -5 15 -11 13 -6 -1 -14 4 -16 11 -3 6 3 12
14 13 10 0 13 3 5 6 -9 3 -7 9 6 21 11 10 12 13 2 8 -12 -8 -12 -6 2 8 19 22
42 12 35 -15 -3 -12 0 -19 9 -19 8 0 14 -9 14 -20 0 -11 5 -20 10 -20 16 0 12
30 -6 48 -15 15 -15 17 5 33 24 20 28 34 6 25 -10 -4 -15 1 -15 15 0 11 7 22
16 26 8 3 20 17 27 32 10 25 11 26 14 4 3 -13 9 -23 14 -23 5 0 9 10 10 23 1
21 1 21 9 -3 4 -14 8 -19 9 -11 1 7 13 22 27 33 15 12 23 26 20 35 -4 9 1 17
14 20 16 4 20 14 20 44 0 21 -5 41 -11 44 -5 4 -14 17 -19 30 -5 13 -39 67
-75 120 -73 107 -67 100 -127 171 -83 100 -81 95 -55 115 75 59 120 90 108 76
-11 -14 -9 -25 16 -79 17 -35 40 -90 53 -123 13 -33 27 -65 31 -70 4 -6 17
-37 29 -70 11 -33 25 -68 31 -77 5 -10 9 -28 10 -40 0 -13 3 -17 6 -10 2 6 12
12 20 12 8 0 24 11 35 25 11 14 24 23 29 20 5 -4 6 9 4 27 -5 30 -4 31 6 11
19 -36 27 -27 23 25 -2 36 -1 40 4 17 12 -49 22 -6 22 96 0 167 -41 346 -127
563 -30 73 -33 90 -22 98 10 7 8 8 -8 3 -19 -5 -23 -2 -23 18 0 13 -9 32 -20
42 -11 10 -20 26 -20 37 0 10 -3 17 -7 16 -11 -4 -73 44 -73 54 0 5 -19 28
-42 52 -24 23 -59 63 -79 89 -29 37 -38 44 -43 31 -4 -9 0 -22 7 -28 26 -20
86 -131 99 -181 7 -28 21 -59 30 -69 21 -23 23 -37 6 -54 -9 -9 -8 -12 5 -12
12 0 17 -8 17 -26 0 -14 4 -23 10 -19 6 3 10 1 10 -5 0 -6 12 -37 27 -68 14
-31 28 -79 30 -106 l5 -51 -19 30 c-10 17 -31 55 -46 85 -34 69 -49 86 -119
138 -32 23 -66 55 -75 70 -10 15 -52 73 -95 129 -43 57 -78 110 -78 120 0 9 3
13 7 10 3 -4 11 3 18 16 7 14 19 21 33 20 23 -3 31 12 10 20 -10 3 -10 7 1 20
7 9 17 14 22 11 5 -3 6 1 4 8 -3 8 3 23 12 33 10 11 24 33 31 48 11 25 14 27
27 13 8 -8 15 -20 15 -26 0 -6 5 -8 10 -5 6 3 13 -1 16 -9 3 -9 13 -16 21 -16
8 0 29 -16 46 -36 88 -101 124 -133 146 -127 12 3 21 1 21 -6 0 -5 -7 -8 -15
-5 -20 8 -19 -3 2 -24 19 -19 22 -19 35 0 6 9 7 6 3 -9 -5 -17 -2 -23 9 -23 9
0 16 -7 16 -16 0 -8 13 -29 29 -46 39 -42 114 -185 145 -279 40 -119 56 -244
56 -435 0 -354 -74 -589 -240 -767 -80 -85 -79 -103 0 -30 57 53 128 153 164
234 30 66 68 226 91 378 30 198 5 458 -62 661 l-37 111 27 107 c15 59 27 128
27 155 0 26 4 47 9 47 11 0 111 -107 161 -174 73 -96 150 -229 150 -256 0 -81
-112 -298 -204 -397 -16 -18 -25 -33 -20 -33 11 0 72 69 112 127 50 71 132
263 132 308 0 25 -105 202 -174 292 -24 33 -78 90 -118 128 -41 39 -104 106
-140 150 -37 44 -80 89 -97 100 -30 19 -40 35 -23 35 16 0 177 -86 222 -119
203 -147 360 -416 360 -620 0 -53 3 -71 10 -61 14 22 12 126 -5 198 -23 99
-95 230 -182 335 -15 18 -64 68 -109 112 -57 56 -92 101 -118 150 -72 141
-226 317 -368 424 -41 30 -47 38 -41 60 13 51 9 65 -26 81 -45 22 -52 38 -36
84 18 51 45 88 78 104 33 16 53 79 69 215 8 77 8 111 -2 155 -11 52 -20 64
-95 137 -90 87 -99 104 -110 220 -11 127 -45 174 -180 248 -85 46 -116 81
-137 150 -9 30 -9 43 0 55 37 52 37 59 3 165 -57 174 -98 229 -253 338 -47 34
-87 76 -144 150 -81 109 -141 171 -211 220 -41 29 -44 29 -175 29 l-134 0 -30
-32z m-2537 -494 c-3 -3 -12 -4 -19 -1 -8 3 -5 6 6 6 11 1 17 -2 13 -5z m3018
-444 c3 -5 1 -10 -4 -10 -6 0 -11 5 -11 10 0 6 2 10 4 10 3 0 8 -4 11 -10z
m-2950 -90 c3 -5 -3 -10 -14 -10 -11 0 -23 5 -26 10 -3 6 3 10 14 10 11 0 23
-4 26 -10z m50 -20 c3 -5 0 -10 -7 -10 -7 0 -31 -3 -52 -7 -29 -4 -37 -3 -32
6 4 6 11 9 15 7 4 -3 13 -1 21 5 20 12 47 11 55 -1z m159 -11 c-7 -11 -34 -12
-34 -1 0 14 11 21 26 15 8 -3 11 -9 8 -14z m2648 -11 c-7 -7 -12 -8 -12 -2 0
14 12 26 19 19 2 -3 -1 -11 -7 -17z m-2721 -26 c-11 -4 -11 -6 0 -13 10 -6 10
-9 2 -9 -7 0 -17 9 -23 21 -7 11 -18 18 -25 15 -9 -3 -12 0 -9 9 5 12 11 12
37 -2 20 -10 27 -18 18 -21z m-128 11 c-7 -2 -19 -2 -25 0 -7 3 -2 5 12 5 14
0 19 -2 13 -5z m274 -19 c-3 -3 -12 -4 -19 -1 -8 3 -5 6 6 6 11 1 17 -2 13 -5z
m-81 -32 c1 -7 0 -8 -2 -3 -3 5 -15 7 -27 4 -18 -4 -19 -3 -7 6 18 13 33 10
36 -7z m229 -11 c-4 -13 -1 -20 11 -23 16 -3 16 -4 1 -17 -15 -12 -17 -11 -17
3 0 15 -8 19 -40 18 -8 -1 -3 4 13 11 15 6 27 14 27 19 0 4 3 8 6 8 3 0 3 -9
-1 -19z m-138 -17 c-3 -3 -12 -4 -19 -1 -8 3 -5 6 6 6 11 1 17 -2 13 -5z m38
-22 c-3 -3 -11 0 -18 7 -9 10 -8 11 6 5 10 -3 15 -9 12 -12z m-680 -2 c-3 -5
-10 -10 -16 -10 -5 0 -9 5 -9 10 0 6 7 10 16 10 8 0 12 -4 9 -10z m820 -10 c3
-5 -1 -10 -10 -10 -9 0 -13 5 -10 10 3 6 8 10 10 10 2 0 7 -4 10 -10z m18 -77
c3 -5 -6 -9 -20 -10 -19 -1 -22 1 -12 8 17 11 26 11 32 2z m-1423 -53 c0 -5
-7 -10 -15 -10 -8 0 -15 -7 -15 -15 0 -8 -4 -15 -10 -15 -16 0 -12 22 8 36 21
16 32 17 32 4z m3960 -132 c-1 -15 -17 -35 -45 -58 -56 -43 -59 -53 -39 -105
12 -33 13 -48 5 -63 -6 -11 -11 -30 -11 -42 0 -25 -26 -68 -54 -92 -12 -9 -21
-23 -21 -30 0 -7 -7 -13 -15 -13 -21 -1 -41 -15 -35 -25 14 -23 -17 -17 -47 8
-38 32 -128 92 -139 92 -23 0 -15 37 18 84 27 40 41 52 56 48 21 -5 61 12 95
42 26 23 28 36 7 36 -72 0 129 138 203 140 16 0 22 -6 22 -22z m-4020 -22 c0
-3 -4 -8 -10 -11 -5 -3 -10 -1 -10 4 0 6 5 11 10 11 6 0 10 -2 10 -4z m-130
-10 c0 -2 -7 -9 -15 -16 -13 -11 -14 -10 -9 4 5 14 24 23 24 12z m7 -58 c-3
-7 -5 -2 -5 12 0 14 2 19 5 13 2 -7 2 -19 0 -25z m-30 -30 c-3 -8 -6 -5 -6 6
-1 11 2 17 5 13 3 -3 4 -12 1 -19z m3223 -23 c14 -19 14 -19 -2 -6 -10 7 -18
18 -18 24 0 6 1 8 3 6 1 -2 9 -13 17 -24z m-3150 -19 c0 -2 -8 -10 -17 -17
-16 -13 -17 -12 -4 4 13 16 21 21 21 13z m3202 -38 c19 -16 30 -56 17 -64 -5
-3 -9 2 -9 10 0 9 -3 16 -7 16 -5 0 -13 11 -20 25 -12 27 -5 32 19 13z m-3342
-14 c0 -1 -3 -9 -6 -18 -8 -22 -20 -20 -20 2 0 10 6 19 13 19 7 0 13 -1 13 -3z
m20 -24 c0 -5 -5 -10 -11 -10 -5 0 -7 5 -4 10 3 6 8 10 11 10 2 0 4 -4 4 -10z
m-10 -60 c-16 -40 -23 -33 -9 9 6 18 14 30 17 27 2 -3 -1 -19 -8 -36z m2775
-50 c32 -11 64 -25 71 -31 17 -14 18 -59 2 -59 -36 2 -232 58 -228 66 7 13 62
43 81 43 9 1 42 -8 74 -19z m-2875 -55 c0 -14 -4 -25 -10 -25 -11 0 -14 33 -3
43 11 11 13 8 13 -18z m33 -2 c3 -15 0 -35 -6 -44 -10 -13 -12 -8 -12 27 0 49
10 58 18 17z m-33 -98 c0 -5 -5 -3 -10 5 -5 8 -10 20 -10 25 0 6 5 3 10 -5 5
-8 10 -19 10 -25z m1010 -18 c0 -7 11 -37 25 -65 14 -29 25 -57 25 -63 0 -6 6
-23 14 -37 8 -15 33 -65 57 -112 47 -97 109 -204 155 -271 17 -25 39 -60 48
-78 10 -18 26 -41 37 -52 12 -12 18 -23 16 -26 -12 -11 -112 120 -188 245 -55
90 -153 294 -174 362 -10 30 -21 63 -26 72 -12 23 -11 38 1 38 6 0 10 -6 10
-13z m3843 -19 c-4 -7 -6 -26 -4 -42 2 -18 -1 -26 -8 -22 -6 4 -11 16 -11 27
0 15 -5 18 -25 15 -35 -6 -31 2 8 19 40 18 50 18 40 3z m-459 -228 c19 -7 26
-17 26 -35 0 -23 -4 -25 -42 -25 -24 0 -59 -3 -79 -6 -32 -5 -36 -4 -34 14 3
50 68 76 129 52z m530 -210 c-1 -67 -29 -142 -57 -153 -14 -5 -143 25 -154 37
-10 10 32 7 65 -5 17 -6 41 -9 54 -7 16 3 3 10 -47 27 -79 27 -253 94 -304
119 -34 16 -34 16 -10 25 13 6 112 12 219 14 107 2 196 6 199 9 3 2 12 3 21 2
12 -3 15 -17 14 -68z m313 -4 c127 -102 246 -244 307 -363 14 -29 26 -54 26
-57 0 -16 -169 96 -230 154 -41 38 -114 99 -162 135 -48 36 -90 71 -94 77 -5
7 -2 8 6 3 10 -6 12 -1 8 18 -3 15 -1 24 3 21 5 -3 9 2 9 10 0 25 22 66 36 66
6 0 48 -29 91 -64z m-4723 -171 c27 -98 85 -249 151 -391 33 -72 132 -214 148
-214 5 0 4 7 -3 15 -7 9 -10 18 -7 22 4 3 3 11 -2 17 -10 13 -22 46 -17 46 6
0 54 -87 61 -111 6 -18 4 -19 -12 -11 -42 23 -328 114 -398 127 -124 24 -138
16 -25 -14 141 -37 215 -61 338 -109 115 -45 163 -74 185 -112 9 -14 37 -53
64 -86 26 -34 74 -100 106 -147 105 -154 302 -333 422 -382 19 -9 35 -14 35
-12 0 2 -33 26 -72 52 -195 129 -362 314 -462 512 -34 68 -35 72 -14 64 40
-16 192 -93 223 -114 l30 -20 -30 31 c-16 16 -82 58 -146 91 l-117 62 -26 82
c-48 152 -117 495 -116 576 0 9 38 -56 83 -144 99 -190 210 -380 287 -490 70
-99 172 -242 198 -275 11 -14 64 -91 117 -170 53 -80 106 -153 117 -162 11
-10 17 -18 12 -18 -4 0 -3 -5 4 -12 8 -8 15 -8 27 2 12 10 15 10 15 -4 0 -10
-4 -14 -10 -11 -5 3 -10 -4 -10 -16 0 -18 2 -19 15 -9 8 7 15 20 15 29 1 30
31 -53 47 -129 15 -72 14 -173 -2 -212 -4 -11 -3 -18 4 -18 6 0 11 6 11 13 0
7 22 57 50 110 58 112 101 250 125 397 9 57 17 106 19 107 7 7 56 -268 56
-315 0 -28 4 -52 8 -52 10 0 47 132 64 230 7 37 11 161 11 288 -1 122 1 222 2
222 3 0 80 -137 125 -222 24 -47 24 -48 5 -62 -20 -15 -20 -15 0 -21 42 -14
51 -24 82 -100 56 -135 110 -335 97 -357 -3 -4 0 -16 5 -25 6 -10 11 -16 11
-13 0 3 6 41 13 85 17 100 12 234 -12 348 -10 48 -14 87 -9 87 23 0 73 -163
98 -320 12 -72 8 -236 -7 -277 -5 -15 -3 -16 7 -6 21 20 39 142 50 353 14 247
18 280 34 280 8 0 28 -30 45 -66 100 -209 205 -576 217 -756 4 -51 10 -99 14
-107 8 -14 10 -2 26 119 7 49 8 52 15 25 20 -88 3 -281 -31 -347 -19 -36 -14
-52 7 -25 22 28 77 179 103 280 15 59 29 110 32 112 3 3 10 -27 17 -67 35
-216 43 -248 61 -248 26 0 19 -21 -72 -204 -44 -88 -117 -251 -164 -363 -46
-112 -97 -230 -114 -262 -41 -82 -139 -209 -215 -279 -90 -82 -321 -200 -550
-279 -148 -51 -509 -139 -610 -149 -84 -8 -129 9 -499 186 -111 53 -336 195
-479 303 -150 113 -377 359 -377 409 0 5 17 -4 38 -20 51 -40 125 -69 230 -91
74 -15 95 -16 130 -6 25 8 93 12 178 10 76 -1 161 1 189 4 l50 7 -55 8 c-167
25 -380 131 -487 242 -38 39 -41 48 -13 39 12 -4 20 -2 20 6 0 7 -10 10 -29 6
-20 -4 -31 -2 -35 8 -3 8 -1 15 4 15 6 0 10 -4 10 -8 0 -11 81 -5 94 8 5 5 30
10 56 10 75 0 220 48 220 72 0 5 7 8 15 8 8 0 15 4 15 9 0 5 11 22 23 38 32
38 42 114 21 159 -9 19 -20 34 -24 34 -5 0 -12 9 -15 20 -4 11 -11 18 -16 15
-5 -4 -14 6 -19 20 -6 15 -20 29 -31 32 -16 4 -18 8 -7 14 9 6 4 9 -15 9 -18
0 -26 -4 -21 -11 4 -6 -3 -6 -17 2 -23 13 -21 14 36 25 33 6 65 7 70 3 11 -8
45 13 45 27 0 5 14 29 30 54 17 25 44 79 61 120 29 69 31 82 30 186 -1 61 -8
137 -16 168 -17 63 -19 87 -7 71 11 -16 55 -33 107 -41 l48 -7 -6 48 c-6 43
-6 46 10 34 14 -13 16 -11 10 11 -21 87 -21 83 1 76 64 -21 -9 74 -99 126
-105 61 -304 85 -433 52 -83 -21 -201 -71 -256 -107 -25 -16 -80 -64 -124
-106 -60 -58 -77 -70 -72 -51 4 14 12 45 17 69 38 183 221 702 357 1016 22 50
49 119 62 155 45 129 52 145 63 158 14 18 17 11 51 -113z m1821 95 c-3 -5 -17
-10 -30 -10 -13 0 -27 5 -30 10 -4 6 8 10 30 10 22 0 34 -4 30 -10z m750 0 c4
-6 3 -24 0 -41 -6 -27 -17 -36 -84 -66 -120 -55 -117 -54 -145 -32 -14 11 -26
26 -26 33 0 15 90 70 156 96 55 21 90 25 99 10z m1994 -12 c58 -35 177 -125
223 -168 24 -22 46 -40 49 -40 4 0 9 -6 12 -14 5 -13 0 -13 -39 -1 -25 7 -85
19 -134 26 -78 10 -89 14 -94 34 -4 16 -22 28 -66 44 -68 25 -73 37 -40 101
23 46 38 49 89 18z m-402 -4 c-3 -3 -12 -4 -19 -1 -8 3 -5 6 6 6 11 1 17 -2
13 -5z m-3958 -34 c31 -4 59 -6 62 -4 8 4 19 -47 19 -84 0 -23 -1 -24 -12 -9
-10 12 -32 17 -81 19 l-67 3 -10 35 c-15 53 -13 62 11 55 12 -4 46 -11 78 -15z
m1051 -10 c13 -8 12 -10 -1 -15 -27 -10 -199 -21 -212 -13 -16 10 3 16 93 26
103 13 103 13 120 2z m772 -60 c4 -11 -1 -16 -18 -18 -24 -2 -32 12 -14 23 5
3 6 13 3 23 -6 15 -5 15 8 2 8 -8 18 -22 21 -30z m2523 -57 c17 -17 14 -67 -6
-105 -9 -16 -12 -16 -45 4 -32 19 -34 24 -28 52 14 66 44 85 79 49z m-937 -21
c43 -31 75 -101 66 -146 -9 -51 -36 -80 -84 -95 -65 -19 -114 -7 -154 41 -60
70 -56 132 11 196 33 31 41 34 84 30 25 -3 60 -15 77 -26z m-4672 -102 l-16
-35 6 45 c8 61 17 82 21 50 2 -14 -3 -41 -11 -60z m39 40 c3 -5 1 -10 -4 -10
-6 0 -11 5 -11 10 0 6 2 10 4 10 3 0 8 -4 11 -10z m4912 -10 c41 -25 86 -91
81 -122 -2 -18 -9 -23 -33 -24 -18 0 -35 7 -44 18 -7 11 -24 23 -37 28 -13 5
-24 16 -24 25 0 15 -10 19 -44 15 -13 -1 -17 3 -13 14 5 13 2 13 -18 4 -13 -6
-24 -14 -23 -17 4 -20 -17 -83 -30 -90 -13 -7 -11 -13 12 -43 35 -46 33 -65
-9 -85 -33 -16 -36 -15 -55 2 -13 12 -20 31 -20 56 0 32 5 41 30 56 17 10 33
27 35 38 19 93 22 100 54 122 42 28 95 30 138 3z m-4660 -32 c-3 -7 -5 -2 -5
12 0 14 2 19 5 13 2 -7 2 -19 0 -25z m-260 -20 c-3 -7 -5 -2 -5 12 0 14 2 19
5 13 2 -7 2 -19 0 -25z m4223 0 c25 -42 25 -64 1 -78 -48 -25 -81 -2 -81 57 0
59 49 71 80 21z m1589 -49 c42 -11 84 -29 95 -39 17 -17 18 -24 6 -100 -7 -44
-16 -80 -20 -78 -4 2 -49 56 -99 121 -61 79 -85 117 -74 117 9 0 51 -9 92 -21z
m-849 -58 c0 -5 -7 -12 -16 -15 -14 -5 -15 -4 -4 9 14 17 20 19 20 6z m300
-46 c0 -13 -71 -140 -88 -157 -4 -4 -18 5 -30 22 -27 37 -21 53 46 122 35 36
49 45 59 36 7 -6 13 -16 13 -23z m139 -160 c86 -102 181 -233 181 -250 0 -11
-47 22 -120 84 -35 30 -104 83 -152 119 -48 35 -88 69 -88 76 0 7 14 33 30 60
25 38 33 45 43 34 7 -7 54 -62 106 -123z m-565 82 c30 -30 106 -161 106 -183
0 -31 199 -373 250 -429 15 -16 38 -51 53 -76 25 -44 77 -98 126 -129 l24 -16
-18 -98 c-21 -119 -16 -227 15 -307 24 -62 68 -121 104 -141 13 -7 38 -21 56
-31 42 -24 50 -14 15 20 -15 16 -32 39 -37 53 -14 37 -10 144 8 219 18 74 68
191 81 191 14 0 100 -93 117 -126 24 -49 28 -100 17 -211 -12 -116 -34 -178
-97 -280 -81 -131 -204 -213 -317 -213 -34 0 -74 7 -93 16 l-34 16 0 142 c1
175 -24 326 -81 503 -47 145 -48 133 11 328 16 55 30 108 30 117 0 10 -15 39
-34 65 -34 49 -186 320 -186 333 0 4 -10 19 -23 33 -12 15 -31 43 -42 64 -10
21 -34 61 -51 90 -18 28 -30 54 -27 57 9 9 13 8 27 -7z m116 -62 c11 -24 17
-51 13 -67 -6 -31 -23 -38 -23 -10 0 30 -20 92 -29 89 -13 -3 -52 44 -45 54
10 17 64 -26 84 -66z m885 26 c-6 -6 -35 27 -35 39 0 7 9 2 19 -11 11 -13 18
-26 16 -28z m-1117 -16 c-3 -13 -1 -26 4 -27 11 -4 -1 -38 -13 -38 -10 0 -12
73 -2 83 12 13 15 7 11 -18z m199 -37 c-3 -8 -6 -5 -6 6 -1 11 2 17 5 13 3 -3
4 -12 1 -19z m-679 -19 c58 -46 70 -123 28 -172 -20 -23 -34 -29 -78 -32 -90
-5 -138 38 -138 126 0 34 6 47 35 76 32 32 39 35 80 31 25 -3 56 -16 73 -29z
m195 -43 c15 -18 47 -47 72 -62 25 -16 45 -35 45 -42 0 -18 -58 -72 -76 -72
-8 0 -14 -4 -14 -10 0 -5 6 -7 13 -5 22 9 78 -34 94 -72 30 -72 -24 -159 -106
-170 -37 -5 -44 -2 -74 29 -30 32 -57 93 -57 131 0 20 57 77 78 78 14 0 14 2
2 6 -8 3 -32 22 -52 41 -34 32 -38 42 -38 85 0 39 5 52 26 72 36 34 57 31 87
-9z m462 -36 c3 -6 -1 -7 -9 -4 -18 7 -21 14 -7 14 6 0 13 -4 16 -10z m550
-90 c16 -16 25 -30 19 -30 -5 0 -19 -3 -31 -6 -18 -5 -25 -1 -33 21 -10 26 -6
45 9 45 4 0 20 -13 36 -30z m-1105 -42 c22 -39 22 -42 6 -54 -10 -7 -25 -10
-34 -7 -13 5 -14 1 -8 -28 17 -88 17 -104 -4 -137 -51 -81 -150 -49 -202 66
-22 48 -18 84 13 121 17 20 27 23 80 22 34 -1 65 -3 69 -6 4 -3 11 6 14 20 4
14 11 25 16 25 15 0 12 -20 -2 -21 -9 0 -9 -2 1 -6 11 -5 11 -7 0 -14 -11 -6
-11 -11 -2 -20 9 -9 17 -6 35 11 12 13 17 20 10 16 -7 -5 -16 2 -22 19 -12 32
-12 35 -2 35 5 0 19 -19 32 -42z m-1240 -77 c6 -23 5 -31 -4 -31 -7 0 -13 16
-14 37 -3 43 4 40 18 -6z m958 -8 l3 -33 -63 6 c-73 7 -99 24 -78 49 10 12 28
15 74 13 61 -3 61 -3 64 -35z m1600 17 c65 -40 116 -115 128 -188 12 -77 -56
-175 -161 -230 -87 -45 -210 -32 -281 31 -30 26 -72 87 -61 87 2 0 24 -20 49
-44 38 -37 57 -46 116 -60 39 -9 84 -16 99 -16 47 1 106 34 156 90 43 48 47
56 47 104 -1 67 -25 118 -89 189 -56 60 -57 70 -3 37z m-7307 -46 c28 -14 89
-79 89 -94 0 -13 -6 -12 -22 3 -54 53 -128 70 -182 42 -35 -19 -41 -15 -29 22
17 50 75 61 144 27z m7109 -20 c29 -28 -4 -37 -150 -42 -123 -4 -140 -3 -146
12 -11 28 15 45 74 48 102 5 206 -3 222 -18z m-6331 -153 c12 -63 40 -168 62
-235 44 -131 145 -352 181 -395 28 -32 74 -135 69 -155 -1 -5 4 -16 12 -25 8
-9 17 -29 21 -46 l7 -30 -24 29 c-71 87 -229 405 -287 575 -40 121 -71 267
-75 361 -5 109 2 93 34 -79z m5768 153 c-3 -3 -12 -4 -19 -1 -8 3 -5 6 6 6 11
1 17 -2 13 -5z m13 -48 c0 -2 -7 -6 -15 -10 -8 -3 -15 -1 -15 4 0 6 7 10 15
10 8 0 15 -2 15 -4z m-122 -172 c-11 -27 -23 -44 -25 -37 -5 13 36 98 43 91 2
-3 -6 -27 -18 -54z m253 46 c5 0 9 -35 8 -77 l-1 -78 -15 60 c-8 33 -18 64
-24 70 -15 15 -11 38 7 31 9 -3 20 -6 25 -6z m513 -11 c13 -12 8 -15 -37 -23
-31 -6 -38 -4 -44 11 -4 10 -11 22 -17 26 -6 5 12 5 39 2 28 -4 54 -11 59 -16z
m-6562 -26 c-3 -16 -7 -22 -10 -15 -4 13 4 42 11 42 2 0 2 -12 -1 -27z m-522
-75 c0 -26 -33 -102 -47 -111 -6 -4 -8 17 -6 51 6 75 9 82 33 82 14 0 20 -6
20 -22z m2250 -45 c-42 -48 -70 -71 -70 -56 0 10 95 103 105 103 4 0 -12 -21
-35 -47z m110 -36 c53 -27 39 -101 -25 -132 -44 -20 -79 -14 -101 20 -15 23
-15 27 3 62 27 56 73 75 123 50z m3647 -89 c-2 -13 -4 -3 -4 22 0 25 2 35 4
23 2 -13 2 -33 0 -45z m-4026 -39 c-13 -56 -14 -91 -1 -124 9 -23 13 -25 25
-15 12 10 15 10 15 -3 0 -20 57 -83 67 -74 4 4 6 30 4 58 -1 30 1 49 7 45 12
-7 48 32 66 74 15 35 15 35 16 -51 0 -99 27 -218 67 -297 27 -53 101 -132 125
-132 22 -1 -23 -22 -65 -32 -22 -5 -57 -22 -78 -39 -21 -16 -43 -28 -51 -27
-7 2 -13 -5 -13 -14 0 -17 -17 -40 -48 -64 -9 -8 -19 -8 -30 -2 -14 7 -18 4
-24 -22 l-6 -32 -44 68 c-59 91 -105 183 -134 266 l-23 68 27 82 c14 46 38
127 52 182 26 98 42 142 51 133 3 -2 0 -24 -5 -48z m-687 -176 c4 -71 9 -144
11 -163 l5 -35 -10 32 c-6 18 -15 35 -20 38 -6 3 -10 16 -10 28 -1 46 -43 -68
-44 -118 0 -58 51 -177 101 -236 29 -33 78 -158 71 -180 -6 -19 -120 114 -165
192 -69 121 -88 242 -62 384 16 90 83 206 108 191 5 -3 11 -63 15 -133z m6036
-23 c0 -5 -2 -10 -4 -10 -3 0 -8 5 -11 10 -3 6 -1 10 4 10 6 0 11 -4 11 -10z
m17 -42 c-3 -8 -6 -5 -6 6 -1 11 2 17 5 13 3 -3 4 -12 1 -19z m-4567 -102 c0
-8 -4 -18 -10 -21 -5 -3 -10 -4 -10 -1 0 2 -3 11 -6 20 -4 11 -1 16 10 16 9 0
16 -6 16 -14z m4553 -3 c-8 -3 -14 -24 -15 -51 l-1 -47 -4 43 c-4 41 12 81 26
66 3 -4 0 -9 -6 -11z m-4709 -18 c44 -19 76 -59 69 -86 -9 -32 -67 -51 -176
-56 -80 -4 -98 -2 -103 11 -3 8 -11 13 -18 10 -6 -2 -23 7 -36 22 l-25 27 23
-6 c12 -3 19 -1 16 4 -17 28 26 65 106 91 24 8 107 -2 144 -17z m4753 -87 c-3
-8 -6 -5 -6 6 -1 11 2 17 5 13 3 -3 4 -12 1 -19z m-107 -110 c0 -30 -1 -30
-14 -13 -14 19 -11 45 5 45 5 0 9 -14 9 -32z m-4983 -24 c-3 -3 -12 -4 -19 -1
-8 3 -5 6 6 6 11 1 17 -2 13 -5z m3278 -141 c-17 -214 -63 -536 -76 -528 -4 3
-10 31 -14 62 -7 65 -41 267 -55 327 -6 29 -5 47 6 68 18 34 30 30 39 -14 l8
-32 14 37 c9 22 22 37 32 37 12 0 20 16 30 60 8 33 15 60 18 60 2 0 1 -35 -2
-77z m1605 32 c-13 -14 -27 -25 -32 -25 -4 0 2 11 14 25 12 14 26 25 32 25 5
0 -1 -11 -14 -25z m3 -42 c3 -5 -6 -9 -19 -9 -13 -1 -21 2 -18 7 6 11 31 12
37 2z m-93 -43 c0 -5 -4 -10 -10 -10 -5 0 -10 5 -10 10 0 6 5 10 10 10 6 0 10
-4 10 -10z m60 -6 c0 -8 -5 -12 -10 -9 -6 4 -8 11 -5 16 9 14 15 11 15 -7z
m-120 -18 c0 -3 -4 -8 -10 -11 -5 -3 -10 -1 -10 4 0 6 5 11 10 11 6 0 10 -2
10 -4z m-5386 -22 c3 -8 2 -12 -4 -9 -6 3 -10 10 -10 16 0 14 7 11 14 -7z
m5481 6 c13 -6 15 -9 5 -9 -8 0 -22 4 -30 9 -18 12 -2 12 25 0z m-135 -10 c-8
-5 -22 -9 -30 -9 -10 0 -8 3 5 9 27 12 43 12 25 0z m-175 -20 c3 -5 1 -10 -4
-10 -6 0 -11 5 -11 10 0 6 2 10 4 10 3 0 8 -4 11 -10z m87 -15 c-4 -22 -1 -25
24 -24 35 1 80 17 52 18 -10 1 -18 5 -18 11 0 5 21 7 51 3 38 -4 53 -2 59 8 5
7 12 10 16 6 15 -14 -24 -39 -70 -44 -25 -3 -46 -10 -46 -15 0 -5 -8 -7 -17
-5 -10 3 -35 8 -56 12 -24 4 -35 10 -31 17 4 7 3 8 -4 4 -7 -4 -17 -4 -23 -1
-14 9 20 34 47 35 17 0 20 -5 16 -25z m289 1 c30 -13 31 -14 11 -20 -20 -7
-52 11 -52 28 0 8 4 8 41 -8z m-256 -6 c-3 -5 -10 -10 -16 -10 -5 0 -9 5 -9
10 0 6 7 10 16 10 8 0 12 -4 9 -10z m-1509 -177 c-3 -7 -1 -13 4 -13 42 0 -57
-281 -146 -414 -21 -32 -50 -74 -62 -93 -13 -20 -28 -31 -32 -27 -15 16 -20
68 -7 76 9 6 9 12 0 27 -10 16 -9 20 2 25 20 7 19 26 -1 26 -8 0 -12 5 -9 10
4 6 18 9 32 8 23 -3 25 0 26 48 2 31 8 57 18 66 9 9 22 30 29 48 8 19 18 29
26 26 9 -4 14 2 14 17 1 25 27 60 53 70 9 3 17 14 17 22 0 9 3 14 8 11 4 -2 7
19 7 47 -1 67 6 88 17 57 5 -13 6 -30 4 -37z m-421 -65 c-8 -209 -57 -463
-113 -582 -16 -34 -48 -83 -72 -109 -46 -52 -167 -147 -240 -190 -69 -40 -217
-93 -299 -108 -95 -16 -71 -27 65 -28 109 -1 201 18 309 62 33 14 61 24 63 22
1 -1 -9 -36 -23 -78 -20 -61 -25 -95 -25 -175 0 -116 5 -112 -108 -113 -131
-2 -139 -17 -10 -18 85 -1 117 2 121 12 2 6 10 -6 17 -28 24 -74 89 -193 128
-234 l39 -41 -74 0 c-87 0 -158 21 -350 106 -70 30 -175 74 -233 96 -58 21
-112 46 -120 54 -12 12 -12 31 -2 130 6 65 9 121 6 126 -3 4 -30 8 -61 8 -39
0 -63 -6 -84 -21 -20 -14 -29 -16 -29 -7 0 18 29 190 32 194 2 1 66 26 143 55
212 79 305 122 412 192 172 112 297 273 384 496 23 58 51 129 64 156 12 28 26
61 30 75 7 23 23 50 31 50 1 0 1 -46 -1 -102z m-4615 67 c0 -2 -17 -44 -39
-92 -50 -115 -74 -188 -97 -295 -10 -49 -22 -88 -26 -88 -5 0 -8 5 -8 10 0 6
-7 10 -15 10 -16 0 -16 -1 11 170 19 113 61 247 86 272 16 16 88 27 88 13z
m-1110 -60 c0 -11 -35 -75 -41 -75 -7 0 -19 60 -19 98 l0 23 30 -21 c17 -12
30 -23 30 -25z m583 8 c-3 -19 -11 -33 -19 -33 -18 0 -18 4 2 41 19 37 23 35
17 -8z m7877 10 c-1 -14 -24 -39 -47 -51 -37 -20 -38 -13 -3 23 33 34 50 43
50 28z m-7894 -90 c-3 -21 -6 -131 -6 -245 0 -175 -2 -207 -14 -202 -9 3 -20
-4 -27 -17 l-12 -23 -9 24 c-6 14 -12 91 -15 172 -5 125 -3 155 11 193 10 24
22 48 28 51 6 4 8 2 5 -3 -4 -6 0 -13 8 -17 11 -4 15 2 15 19 0 14 -4 25 -10
25 -5 0 -10 4 -10 10 0 5 7 7 16 3 12 -4 14 0 8 21 -4 18 -2 26 6 26 9 0 11
-11 6 -37z m5634 -170 c0 -48 -9 -87 -39 -170 -46 -129 -97 -243 -108 -243 -4
0 -19 16 -32 35 -13 20 -39 49 -58 65 l-34 30 74 113 c50 75 87 145 111 211
56 151 57 152 72 81 7 -33 13 -88 14 -122z m1229 -17 c86 -55 117 -126 85
-193 -17 -33 -24 -38 -58 -41 -25 -2 -36 0 -31 7 3 7 -2 11 -14 11 -12 0 -21
-5 -21 -12 0 -9 -3 -9 -12 0 -18 18 -49 15 -42 -3 4 -9 0 -15 -10 -15 -9 0
-16 5 -16 11 0 6 -9 8 -21 4 -51 -16 -79 97 -45 179 31 75 112 98 185 52z
m-4500 -98 c107 -101 217 -188 366 -289 66 -45 123 -86 127 -93 13 -20 20
-114 12 -139 -9 -24 -10 -24 -56 -12 l-48 12 0 -64 c0 -34 -3 -63 -6 -63 -3 0
-25 14 -49 31 -48 35 -135 129 -212 230 -81 107 -228 381 -249 463 -7 28 -6
28 13 15 11 -8 57 -49 102 -91z m3011 55 c0 -11 -3 -14 -8 -7 -4 6 -14 14 -22
17 -10 4 -8 6 8 6 15 1 22 -5 22 -16z m-3270 -73 c0 -5 -2 -10 -4 -10 -3 0 -8
5 -11 10 -3 6 -1 10 4 10 6 0 11 -4 11 -10z m-234 -75 c16 -48 78 -171 114
-225 9 -14 27 -43 41 -65 l24 -40 -42 33 c-89 70 -123 129 -153 261 -11 50
-20 96 -20 103 0 21 18 -12 36 -67z m357 -104 c47 -62 100 -128 116 -147 35
-38 42 -57 10 -28 -25 22 -147 177 -172 217 -9 15 -25 39 -34 55 -28 45 -10
23 80 -97z m-393 44 c0 -8 -2 -15 -4 -15 -2 0 -6 7 -10 15 -3 8 -1 15 4 15 6
0 10 -7 10 -15z m4464 -122 c39 -18 48 -33 36 -54 -7 -10 -13 -7 -30 14 -12
15 -26 25 -31 22 -5 -4 -9 -1 -9 4 0 6 -10 11 -23 11 -13 0 -32 7 -43 16 -18
14 -16 15 23 10 24 -4 58 -14 77 -23z m456 13 c0 -6 -9 -24 -20 -41 -11 -16
-22 -50 -25 -75 -11 -81 -15 -96 -26 -79 -12 19 -12 182 1 195 13 13 70 13 70
0z m-3831 -198 c8 -36 -2 -78 -19 -78 -6 0 -10 28 -10 67 0 72 14 77 29 11z
m2299 40 c-2 -6 -10 -14 -16 -16 -7 -2 -10 2 -6 12 7 18 28 22 22 4z m832 -35
c48 -63 67 -99 56 -109 -40 -35 -107 -57 -176 -59 -16 0 -26 -7 -28 -19 -2
-11 -11 -27 -20 -35 -14 -15 -15 -14 -9 2 3 9 2 17 -3 17 -17 0 -10 83 11 130
31 69 66 100 110 100 29 0 42 -6 59 -27z m-5383 -102 c43 -31 155 -152 185
-200 19 -30 19 -30 -2 -28 -21 1 -218 156 -233 183 -5 9 -3 14 8 14 19 0 19
10 -1 38 -21 30 -5 28 43 -7z m2196 -21 c10 -9 -63 -71 -75 -64 -4 3 -8 23 -8
44 l0 39 38 -6 c20 -3 41 -9 45 -13z m1188 -87 c-18 -112 -21 -123 -38 -123
-13 0 -15 12 -9 77 7 75 18 111 40 125 18 12 19 1 7 -79z m2068 63 c8 -10 9
-16 1 -21 -5 -3 -10 0 -10 9 0 8 -6 17 -12 19 -8 4 -9 6 -2 6 6 1 17 -5 23
-13z m-3192 -2 c-3 -3 -12 -4 -19 -1 -8 3 -5 6 6 6 11 1 17 -2 13 -5z m-27
-24 c0 -5 -4 -10 -10 -10 -5 0 -10 5 -10 10 0 6 5 10 10 10 6 0 10 -4 10 -10z
m-1184 -41 c107 -45 142 -84 229 -256 l72 -142 -56 28 c-93 47 -290 93 -284
67 1 -5 41 -20 88 -32 48 -12 90 -25 93 -29 4 -4 -2 -5 -13 -2 -11 3 -40 8
-65 12 -25 4 -53 9 -62 11 -22 7 -24 -19 -3 -36 8 -7 15 -20 15 -30 0 -25 37
-69 74 -85 l31 -15 -32 6 c-57 10 -30 -18 53 -55 245 -110 401 -285 464 -521
21 -78 22 -99 17 -259 -5 -147 -4 -177 10 -197 8 -13 19 -24 24 -24 5 0 9 71
9 158 0 169 -18 277 -76 460 -33 104 -23 123 30 55 20 -26 39 -57 42 -70 7
-27 24 -31 24 -6 0 15 -58 122 -100 183 -26 38 -60 107 -60 122 0 7 24 -23 53
-68 50 -76 97 -133 97 -116 0 4 -5 13 -12 20 -6 6 -9 14 -5 18 7 7 21 -9 177
-196 63 -74 116 -137 119 -140 4 -3 24 -27 47 -55 l40 -50 -23 -24 -22 -23
-79 78 c-43 44 -104 108 -135 143 -31 36 -57 60 -57 54 0 -17 85 -122 166
-205 73 -75 75 -78 45 -74 -17 2 -31 2 -31 0 0 -4 69 -114 127 -201 19 -28 41
-53 50 -55 12 -2 2 -17 -37 -53 -246 -226 -247 -229 -150 -342 27 -32 50 -66
50 -75 0 -10 5 -18 11 -18 5 0 7 5 4 10 -12 19 4 10 46 -28 27 -26 38 -41 31
-46 -7 -4 -12 -1 -12 7 0 7 -13 23 -30 35 -32 24 -41 12 -16 -23 7 -11 24 -40
38 -65 14 -25 53 -90 87 -146 33 -55 61 -106 61 -112 0 -7 4 -12 9 -12 10 0
25 -49 17 -57 -2 -2 -30 36 -63 86 -59 93 -84 117 -60 59 8 -18 17 -45 20 -60
l7 -27 -37 21 c-99 58 -156 104 -321 259 l-92 88 34 113 c48 157 50 177 29
215 -93 168 -106 188 -114 168 -4 -11 -27 -74 -51 -140 -53 -149 -117 -275
-196 -387 -96 -134 -133 -159 -341 -228 -173 -56 -295 -76 -458 -71 -58 1 -58
29 0 70 23 16 52 39 65 50 16 16 22 18 22 7 0 -8 -6 -17 -12 -20 -13 -6 12 -2
87 13 104 22 348 105 353 121 2 6 12 10 23 10 10 0 28 9 38 19 13 13 21 16 24
8 2 -7 9 -2 16 11 6 12 18 22 25 22 8 0 17 11 20 25 4 14 14 33 24 43 17 18
29 102 14 102 -4 0 -18 9 -30 21 -12 11 -27 17 -34 13 -6 -4 -8 -3 -4 4 3 6
-3 13 -14 17 -11 4 -20 15 -20 26 0 18 -4 20 -30 14 -30 -7 -35 -1 -31 33 4
27 -24 8 -100 -67 -64 -65 -79 -76 -79 -58 0 12 18 41 39 64 51 54 65 79 47
86 -8 3 -13 -1 -12 -11 0 -9 -7 -18 -16 -20 -12 -2 -18 3 -18 14 0 15 -2 16
-17 2 -10 -9 -36 -19 -58 -22 -22 -4 -60 -14 -83 -22 -25 -8 -86 -15 -139 -16
-77 -1 -96 -4 -101 -17 -3 -9 -10 -19 -15 -22 -5 -4 -9 -20 -9 -35 0 -16 -7
-37 -16 -46 -8 -10 -12 -18 -8 -18 4 0 0 -7 -9 -16 -15 -15 -15 -18 1 -35 9
-11 12 -19 6 -19 -6 0 -12 6 -15 13 -3 9 -8 9 -21 -2 -9 -8 -15 -20 -12 -28 3
-8 2 -12 -3 -9 -5 3 -14 -8 -21 -24 -8 -19 -20 -30 -32 -30 -21 0 -19 6 23 60
37 47 93 154 112 215 23 69 47 216 47 281 0 30 -9 120 -21 201 -16 117 -27
161 -53 218 -41 88 -119 164 -214 207 -65 31 -71 31 -224 33 -87 0 -160 4
-163 7 -4 3 45 18 107 33 95 23 135 28 253 28 148 0 238 -17 343 -63 73 -32
258 -153 347 -225 44 -36 84 -65 90 -65 26 2 -146 143 -258 212 -225 141 -283
159 -519 165 -96 3 -168 9 -168 15 0 5 7 22 15 38 14 26 46 55 159 138 54 41
139 80 231 106 77 22 108 26 225 26 90 0 164 -6 223 -18 48 -10 90 -15 93 -10
13 21 -138 54 -290 64 -80 5 -104 9 -91 17 11 6 56 7 114 3 84 -5 116 -12 218
-42 22 -6 22 -5 12 24 -6 17 -17 36 -25 43 -8 6 -14 20 -14 30 0 29 -40 39
-161 39 -61 0 -109 4 -109 9 0 16 87 24 171 17 46 -4 79 -3 79 3 0 15 -41 21
-155 21 -131 0 -215 -17 -332 -64 -48 -20 -89 -34 -91 -31 -2 2 -4 27 -4 54 0
58 -13 67 -26 19 l-8 -33 -18 47 c-11 27 -16 58 -12 71 16 66 184 202 294 239
48 16 78 18 194 14 126 -4 143 -7 214 -37z m4921 -1 c-3 -8 -6 -5 -6 6 -1 11
2 17 5 13 3 -3 4 -12 1 -19z m-3793 -8 c-10 -4 -21 -6 -24 -3 -8 7 24 22 34
16 5 -4 1 -10 -10 -13z m289 -5 c-3 -9 -8 -14 -10 -11 -3 3 -2 9 2 15 9 16 15
13 8 -4z m-768 -5 c-3 -5 -12 -10 -18 -10 -7 0 -6 4 3 10 19 12 23 12 15 0z
m849 -15 c3 -8 1 -15 -4 -15 -6 0 -10 7 -10 15 0 8 2 15 4 15 2 0 6 -7 10 -15z
m3406 -15 c0 -5 -4 -10 -10 -10 -5 0 -10 5 -10 10 0 6 5 10 10 10 6 0 10 -4
10 -10z m-3525 -30 c-3 -5 -12 -10 -18 -10 -7 0 -6 4 3 10 19 12 23 12 15 0z
m95 -35 c0 -5 -5 -3 -10 5 -5 8 -10 20 -10 25 0 6 5 3 10 -5 5 -8 10 -19 10
-25z m986 8 c-3 -10 -8 -31 -11 -48 -9 -42 -116 -368 -124 -377 -4 -4 -49 35
-100 86 l-94 94 46 22 c26 12 45 26 42 30 -3 5 -1 11 5 15 5 3 10 1 10 -5 0
-8 6 -7 21 1 18 9 19 13 8 21 -11 8 -10 9 4 4 19 -6 57 11 70 32 4 6 17 12 27
12 11 0 20 4 20 10 0 5 -7 7 -15 4 -8 -4 -15 -1 -15 5 0 11 19 15 54 11 11 -1
17 3 14 12 -3 7 1 18 9 23 10 8 7 10 -12 10 -16 0 -23 -5 -20 -12 3 -10 0 -10
-15 0 -24 14 -27 29 -4 20 10 -4 17 2 22 18 l6 24 7 -25 7 -25 1 28 c1 20 6
27 22 27 15 0 19 -5 15 -17z m30 -55 c-7 -64 -19 -98 -31 -86 -4 3 2 40 12 81
10 41 20 74 22 72 2 -2 0 -33 -3 -67z m-1111 52 c-3 -5 -10 -10 -16 -10 -5 0
-9 5 -9 10 0 6 7 10 16 10 8 0 12 -4 9 -10z m3829 -5 c-4 -8 -11 -15 -16 -15
-6 0 -5 6 2 15 7 8 14 15 16 15 2 0 1 -7 -2 -15z m-3733 -32 c13 -16 12 -17
-3 -4 -17 13 -22 21 -14 21 2 0 10 -8 17 -17z m879 -13 c0 -5 -8 -10 -17 -10
-15 0 -16 2 -3 10 19 12 20 12 20 0z m-3399 -99 c75 -82 117 -146 104 -159 -9
-9 -74 59 -141 148 -35 47 -64 88 -64 92 0 21 26 0 101 -81z m3359 55 c0 -3
-4 -8 -10 -11 -5 -3 -10 -1 -10 4 0 6 5 11 10 11 6 0 10 -2 10 -4z m2770 -80
c0 -3 -6 -11 -14 -18 -7 -8 -16 -23 -19 -33 -6 -17 -1 -20 32 -21 32 -2 40 2
45 19 3 12 8 19 11 15 3 -3 -10 -41 -29 -84 -19 -44 -49 -122 -67 -174 l-34
-95 -10 47 c-5 26 -20 56 -32 68 -28 26 -29 38 -1 103 34 83 118 205 118 173z
m-5207 -93 c-24 -2 -62 -2 -85 0 -24 2 -5 4 42 4 47 0 66 -2 43 -4z m182 -33
c13 -6 15 -9 5 -9 -8 0 -22 4 -30 9 -18 12 -2 12 25 0z m1213 -32 c-4 -17 -20
-28 -31 -21 -4 3 0 11 10 19 22 17 24 17 21 2z m-2693 -59 c9 -26 111 -93 176
-114 41 -14 48 -19 38 -31 -6 -8 -8 -14 -4 -14 4 0 2 -7 -5 -15 -7 -8 -28 -15
-47 -15 -34 0 -123 39 -157 69 -31 28 -73 123 -47 106 5 -3 12 4 16 15 8 26
22 26 30 -1z m1928 -9 c3 -11 1 -20 -4 -20 -5 0 -9 9 -9 20 0 11 2 20 4 20 2
0 6 -9 9 -20z m1527 16 c0 -16 -14 -36 -26 -36 -14 0 -19 22 -7 33 7 8 33 10
33 3z m400 -5 c0 -14 -23 -28 -53 -33 -22 -4 -27 -2 -23 9 3 8 6 19 6 24 0 5
16 9 35 9 19 0 35 -4 35 -9z m-1010 -55 c117 -52 280 -107 293 -99 13 8 1 -14
-23 -42 -26 -30 -132 -192 -167 -256 -38 -68 -35 -99 16 -137 20 -15 56 -45
81 -68 25 -23 58 -53 74 -68 36 -32 73 -43 98 -27 11 7 18 7 18 1 0 -5 5 -10
10 -10 6 0 10 6 10 13 0 7 9 19 21 27 21 15 44 45 163 208 37 50 73 92 78 92
6 0 41 -24 77 -53 204 -165 351 -269 411 -293 38 -16 44 -16 75 -1 21 10 44
34 61 64 47 84 68 112 91 122 13 6 23 15 23 20 0 5 -82 94 -182 197 -179 184
-181 187 -157 199 13 7 48 16 77 20 28 4 49 11 46 16 -10 16 8 9 41 -15 74
-56 487 -644 477 -679 -1 -4 18 -57 43 -117 25 -60 45 -116 45 -125 0 -21 -28
-19 -111 11 -49 18 -86 25 -119 22 -26 -1 -51 0 -56 4 -28 24 -147 99 -150 95
-4 -4 31 -44 107 -124 51 -53 60 -56 104 -26 31 21 47 16 89 -33 l41 -45 55
30 c30 17 63 31 72 31 24 0 75 -66 93 -120 24 -73 45 -217 45 -305 0 -91 -7
-126 -21 -103 -7 10 -9 10 -9 1 0 -20 -48 -16 -233 22 -94 20 -338 70 -542
111 -453 92 -434 87 -470 125 -17 17 -97 94 -180 172 -82 77 -176 165 -208
195 -42 39 -56 57 -48 65 8 8 20 8 44 -2 60 -24 64 -24 105 13 22 20 43 36 47
36 4 0 38 -30 76 -67 l69 -67 41 23 41 23 27 -26 c15 -14 32 -26 39 -26 6 0
37 16 69 35 77 46 99 45 159 -10 59 -54 77 -61 106 -41 29 20 49 20 92 -1 l35
-16 64 69 c73 77 71 102 -2 30 -26 -25 -54 -46 -64 -46 -10 0 -50 11 -89 25
-39 14 -88 25 -109 25 -20 0 -53 7 -72 15 -32 13 -43 13 -93 0 -31 -8 -67 -21
-79 -29 -20 -13 -25 -13 -44 0 -12 9 -60 26 -107 39 -47 13 -100 35 -119 49
-18 14 -38 26 -43 26 -6 0 -29 -16 -53 -35 -23 -20 -47 -34 -53 -31 -6 2 -40
16 -76 31 -70 28 -114 68 -185 168 -60 84 -79 81 -34 -6 9 -17 9 -19 0 -11
-13 12 -55 121 -132 343 -28 79 -68 188 -90 243 -33 82 -37 103 -27 115 35 42
83 39 198 -11z m-2084 25 c-7 -10 -91 -61 -102 -61 -14 0 21 32 55 50 40 21
55 25 47 11z m5368 -55 c14 -114 14 -196 1 -196 -7 0 -16 -12 -20 -27 -10 -43
-22 -10 -35 97 -12 94 -7 165 11 155 5 -4 9 -2 9 3 0 5 7 9 15 9 9 0 16 -14
19 -41z m233 12 c-3 -8 -6 -5 -6 6 -1 11 2 17 5 13 3 -3 4 -12 1 -19z m-1507
-59 c187 -25 364 -96 505 -204 121 -93 121 -91 22 -105 -94 -13 -137 -36 -221
-117 -48 -48 -115 -167 -117 -208 0 -11 -9 14 -20 55 -17 63 -19 92 -14 181 6
103 6 106 -19 136 -14 17 -94 80 -178 141 -84 61 -162 117 -172 125 -18 13
-13 14 55 11 40 -3 112 -9 159 -15z m1909 -75 c-12 -27 -41 -110 -66 -184 -24
-74 -52 -143 -61 -154 -17 -18 -16 -19 28 -14 44 6 45 6 15 -8 -58 -26 -87 -8
-49 30 8 9 12 16 8 16 -3 0 -2 6 3 13 5 6 11 34 12 61 4 77 74 276 114 325 22
27 20 -31 -4 -85z m-4881 -39 c-3 -3 -9 2 -12 12 -6 14 -5 15 5 6 7 -7 10 -15
7 -18z m1239 -121 c22 -6 22 -7 5 -33 -11 -14 -22 -34 -25 -43 -5 -15 -18 -18
-67 -18 l-61 0 17 33 c33 65 63 79 131 61z m-2466 -70 c106 -33 214 -129 248
-218 26 -71 61 -300 61 -404 -1 -156 -58 -332 -153 -472 -40 -58 -60 -76 -127
-108 -54 -26 -59 -27 -225 -25 -219 3 -333 17 -401 49 -67 31 -143 114 -185
200 -28 57 -33 78 -37 167 -5 120 10 192 65 310 41 88 70 117 158 159 69 32
130 36 181 12 59 -28 69 -60 69 -219 1 -134 2 -143 27 -186 27 -47 96 -115
105 -105 3 3 -14 27 -37 53 -75 86 -83 110 -75 237 6 110 6 111 -25 172 -37
74 -62 88 -153 82 -47 -3 -82 -13 -133 -38 -63 -32 -72 -41 -108 -103 l-39
-68 -39 38 c-21 20 -36 43 -34 50 3 6 0 10 -7 8 -13 -5 -237 205 -237 222 0
14 192 98 283 123 40 12 130 30 201 41 71 11 134 23 140 26 14 9 316 21 381
15 28 -2 71 -10 96 -18z m4301 -80 l28 6 0 -73 c0 -82 -22 -224 -50 -319 -16
-57 -18 -60 -25 -36 -4 16 -11 26 -15 23 -5 -3 -15 4 -23 15 -13 19 -15 19
-21 4 -4 -9 -9 -15 -12 -12 -4 5 44 318 62 403 7 30 7 30 17 7 9 -19 16 -23
39 -18z m3008 28 c0 -9 -43 -28 -85 -38 -44 -10 -22 8 33 27 26 9 48 17 50 18
1 0 2 -2 2 -7z m-3802 -26 c7 -4 12 -18 12 -31 0 -19 -9 -27 -52 -43 -41 -15
-58 -28 -73 -56 -11 -20 -24 -36 -28 -36 -5 0 -5 6 -1 13 6 9 4 9 -8 -1 -14
-11 -17 -10 -24 10 -12 39 -7 109 9 126 26 26 133 38 165 18z m-4508 -15 c0
-14 -134 -60 -144 -50 -13 11 -11 13 59 36 71 24 85 26 85 14z m8130 -11 c-13
-9 -13 -10 1 -10 8 0 20 5 26 11 7 7 13 7 17 1 3 -6 -8 -14 -26 -17 -18 -4
-51 -16 -73 -25 -129 -58 -211 -81 -275 -78 l-65 3 85 34 c47 18 135 46 195
62 122 31 137 33 115 19z m-8420 -27 c-8 -3 -24 -10 -35 -16 -18 -9 -19 -9 -6
6 7 10 23 17 35 16 14 0 16 -2 6 -6z m-73 -29 c-3 -3 -12 -4 -19 -1 -8 3 -5 6
6 6 11 1 17 -2 13 -5z m-202 -64 c-3 -5 -12 -10 -18 -10 -7 0 -6 4 3 10 19 12
23 12 15 0z m6813 -24 c90 -45 271 -123 305 -131 15 -4 27 -10 27 -14 0 -4
-16 -34 -36 -67 -103 -170 -168 -340 -203 -529 -12 -66 -25 -138 -29 -160 -5
-26 -13 -39 -21 -37 -8 2 -41 5 -74 8 -81 8 -103 24 -122 92 -20 71 -76 181
-222 435 -202 350 -203 355 -79 397 94 31 140 38 269 39 114 1 119 0 185 -33z
m137 13 c89 -12 115 -23 115 -44 0 -13 11 -19 31 -17 4 1 2 -9 -4 -22 l-12
-24 -45 18 c-55 22 -211 97 -219 106 -3 3 8 4 24 1 17 -4 66 -11 110 -18z
m1698 -16 c-7 -2 -21 -2 -30 0 -10 3 -4 5 12 5 17 0 24 -2 18 -5z m-2677 -183
c23 -82 53 -156 101 -249 45 -87 48 -108 12 -75 -11 10 -64 48 -117 85 l-97
66 -3 49 c-2 27 6 99 18 161 l22 112 24 -47 c14 -26 31 -72 40 -102z m2012 25
c-3 -3 -20 -10 -38 -15 -19 -5 -29 -6 -24 -1 12 12 74 27 62 16z m-354 -82
c-4 -26 -7 -52 -5 -56 1 -5 -4 -7 -11 -5 -20 7 -22 83 -2 102 23 24 28 14 18
-41z m741 36 c-16 -5 -51 -13 -77 -17 -36 -7 -45 -6 -41 4 6 15 31 21 98 22
45 0 47 -1 20 -9z m285 -114 c0 -25 -90 -65 -146 -65 -52 0 -98 12 -82 21 9 6
6 9 -12 9 -46 1 2 19 91 34 116 19 149 19 149 1z m-830 -29 c0 -2 -9 -6 -20
-9 -11 -3 -18 -1 -14 4 5 9 34 13 34 5z m-796 -139 c5 -22 11 -27 26 -22 17 5
18 3 10 -22 -4 -15 -19 -64 -33 -108 -13 -44 -32 -125 -41 -180 -10 -55 -19
-101 -21 -103 -2 -2 -9 6 -15 18 -9 16 -15 19 -25 10 -25 -21 -23 51 6 185 25
118 79 284 85 259 1 -5 5 -22 8 -37z m243 -101 c-3 -12 -18 -73 -35 -136 -17
-63 -35 -142 -42 -175 -6 -33 -14 -68 -16 -77 -8 -26 -34 -10 -34 21 1 41 37
196 71 303 24 75 34 95 46 91 9 -4 13 -14 10 -27z m-4884 -33 c-5 -12 -3 -14
7 -8 8 5 11 4 6 -3 -4 -6 -13 -9 -21 -5 -8 3 -15 0 -15 -6 0 -6 -5 -11 -10
-11 -6 0 -3 11 6 25 18 28 37 34 27 8z m3558 -111 c13 -9 46 -28 74 -42 28
-14 59 -39 70 -57 23 -37 57 -43 91 -15 45 36 56 90 28 144 -22 42 -1 26 36
-27 23 -34 29 -51 24 -71 -11 -43 -66 -90 -123 -104 -31 -7 -57 -21 -66 -33
-19 -27 -19 -32 1 -51 19 -20 63 -20 87 -1 10 7 41 19 68 25 27 7 49 16 49 20
0 11 -66 1 -109 -16 -43 -18 -71 -18 -71 -1 0 8 29 26 65 42 59 25 125 80 125
105 0 6 5 10 10 10 6 0 10 -4 10 -10 0 -5 14 -32 30 -61 25 -41 30 -61 28 -97
-3 -44 -5 -47 -38 -53 -25 -6 -42 -3 -59 8 -21 13 -31 14 -76 3 -28 -7 -71
-10 -96 -7 -24 3 -51 6 -58 6 -12 1 -12 4 -3 13 20 20 13 31 -17 25 -36 -8
-73 17 -69 46 4 27 30 33 52 12 17 -18 47 -17 53 1 2 7 -7 14 -19 17 -13 4
-42 22 -65 42 -23 19 -44 35 -48 35 -19 0 -85 -65 -106 -105 -26 -50 -39 -57
-39 -22 0 25 50 116 74 136 20 16 21 31 2 31 -26 0 -68 -43 -92 -94 -17 -35
-22 -42 -18 -22 7 40 29 85 55 118 l23 27 -29 56 c-15 31 -25 58 -23 61 6 6
67 -43 86 -69 27 -35 33 -5 7 38 -39 68 -29 77 14 12 21 -32 49 -66 62 -75z
m1525 8 c-13 -52 -26 -131 -30 -175 -11 -134 -16 -156 -34 -153 -41 7 -49 26
-40 96 9 67 37 185 65 274 10 35 20 48 36 50 12 2 23 3 24 3 1 -1 -8 -43 -21
-95z m-1403 38 c-7 -54 -8 -55 -33 -33 -24 21 -27 50 -5 41 9 -3 20 3 27 14 7
11 14 20 14 20 1 0 0 -19 -3 -42z m-4153 12 c0 -5 -7 -10 -15 -10 -8 0 -15 5
-15 10 0 6 7 10 15 10 8 0 15 -4 15 -10z m4243 -14 c13 -19 13 -26 4 -34 -29
-22 -37 -22 -53 3 -13 20 -14 28 -4 40 18 22 35 19 53 -9z m-1563 -75 c177
-35 299 -66 287 -72 -7 -4 -30 -4 -50 0 -28 7 -39 5 -49 -7 -11 -13 -9 -14 17
-9 24 6 26 5 13 -3 -10 -6 -18 -22 -18 -35 0 -14 -5 -25 -12 -25 -6 0 -19 -7
-28 -15 -27 -25 -78 -3 -132 57 -26 29 -48 59 -48 66 0 6 -4 12 -9 12 -6 0
-22 12 -38 26 l-28 26 25 -6 c14 -4 45 -10 70 -15z m357 -77 c-3 -3 -12 -4
-19 -1 -8 3 -5 6 6 6 11 1 17 -2 13 -5z m960 -134 c14 -27 7 -44 -8 -18 -5 10
-17 14 -29 11 -22 -6 -26 7 -8 25 16 16 30 10 45 -18z m-4109 6 c67 -18 102
-41 102 -66 0 -29 -101 -105 -213 -162 -83 -41 -102 -47 -113 -36 -7 7 -40 53
-73 103 -51 75 -58 91 -45 98 9 5 29 7 45 5 16 -3 30 -2 31 2 2 4 32 21 68 38
73 35 118 39 198 18z m2964 -8 c-7 -7 -12 -8 -12 -2 0 14 12 26 19 19 2 -3 -1
-11 -7 -17z m1608 -68 c0 -5 -6 -10 -14 -10 -8 0 -18 5 -21 10 -3 6 3 10 14
10 12 0 21 -4 21 -10z m-4600 -290 c-18 -71 -35 -130 -39 -130 -3 0 -21 27
-39 60 -18 33 -37 62 -43 65 -5 4 -16 21 -25 38 -14 29 -12 28 22 -11 l37 -44
18 36 c10 20 21 51 25 69 6 30 5 31 -11 17 -15 -12 -17 -12 -14 -1 3 7 25 24
49 37 37 20 46 22 48 10 2 -8 -11 -74 -28 -146z m-89 86 c-11 -13 -51 -29 -51
-20 0 3 51 33 59 34 2 0 -2 -6 -8 -14z m578 -115 c29 -76 31 -85 17 -99 -9 -9
-17 -14 -18 -11 -5 6 -49 89 -77 143 l-25 49 23 19 c23 18 24 18 36 1 7 -10
27 -56 44 -102z m4411 49 c0 -5 -8 -11 -17 -14 -10 -3 -1 -4 19 -1 22 2 51 -3
68 -12 17 -8 36 -16 43 -17 7 -2 19 -6 27 -9 8 -3 33 -11 55 -18 50 -15 61
-23 73 -59 l10 -28 -51 15 c-146 43 -281 111 -271 137 5 14 44 19 44 6z m744
-256 c3 -8 2 -12 -4 -9 -6 3 -10 10 -10 16 0 14 7 11 14 -7z m-3219 -32 c-3
-3 -11 0 -18 7 -9 10 -8 11 6 5 10 -3 15 -9 12 -12z"/>
<path d="M3290 5386 c-62 -18 -116 -42 -124 -55 -9 -15 -10 -15 75 16 68 24
87 27 219 27 130 0 153 -3 225 -27 92 -30 183 -82 237 -134 56 -54 56 -34 0
38 -76 100 -105 115 -249 134 -144 18 -320 18 -383 1z"/>
<path d="M3045 5260 c3 -5 15 -10 26 -10 10 0 19 5 19 10 0 6 -12 10 -26 10
-14 0 -23 -4 -19 -10z"/>
<path d="M4590 4985 c0 -14 4 -25 9 -25 4 0 6 11 3 25 -2 14 -6 25 -8 25 -2 0
-4 -11 -4 -25z"/>
<path d="M5075 4661 c-72 -26 -142 -63 -129 -68 7 -2 54 8 105 24 98 28 211
36 312 21 73 -12 56 7 -20 21 -119 22 -212 23 -268 2z"/>
<path d="M5155 4575 c-5 -2 -36 -6 -67 -10 -36 -4 -66 -14 -80 -26 l-23 -20
35 5 34 6 -28 -29 c-24 -25 -25 -29 -10 -35 13 -5 14 -9 5 -20 -18 -22 3 -24
82 -9 39 7 111 14 161 16 76 2 96 -1 124 -18 27 -16 34 -17 41 -6 7 12 17 9
54 -12 24 -14 58 -41 74 -60 37 -43 59 -57 50 -33 -6 16 -4 16 24 -1 18 -10
41 -30 52 -45 37 -49 44 -30 20 57 -4 17 0 15 26 -9 33 -32 49 -30 32 2 -17
32 -134 134 -196 171 -98 59 -156 75 -285 77 -63 1 -119 1 -125 -1z"/>
<path d="M4390 4215 c0 -14 4 -25 9 -25 12 0 23 29 15 41 -10 18 -24 9 -24
-16z"/>
<path d="M5440 4149 c0 -7 -14 -8 -39 -4 -33 5 -43 3 -58 -14 -10 -12 -28 -32
-41 -45 -16 -17 -19 -25 -10 -29 10 -4 10 -7 -1 -15 -17 -12 -7 -42 14 -42 8
0 15 5 15 10 0 6 9 10 20 10 16 0 20 -7 20 -34 0 -26 5 -36 20 -41 27 -9 150
-4 156 7 3 4 14 8 25 8 16 0 19 7 19 40 0 37 -2 40 -29 40 -20 0 -30 6 -34 20
-3 11 -12 20 -21 20 -9 0 -16 5 -16 11 0 6 -9 9 -20 6 -13 -3 -20 0 -20 9 0 8
8 14 18 15 9 0 12 3 5 5 -7 3 -9 12 -6 20 3 8 0 14 -6 14 -6 0 -11 -5 -11 -11z
m100 -159 c0 -5 -12 -10 -27 -10 -22 0 -25 2 -13 10 20 13 40 13 40 0z"/>
<path d="M5500 4115 c0 -8 4 -15 10 -15 5 0 7 7 4 15 -4 8 -8 15 -10 15 -2 0
-4 -7 -4 -15z"/>
<path d="M4065 3830 c-129 -41 -174 -118 -160 -274 8 -98 31 -161 83 -229 60
-80 110 -100 244 -99 59 0 110 -4 114 -9 3 -5 -10 -16 -28 -25 l-33 -15 38 5
c95 12 226 104 274 192 63 116 83 301 40 365 -59 87 -407 141 -572 89z"/>
<path d="M3185 4420 c3 -5 8 -10 11 -10 2 0 4 5 4 10 0 6 -5 10 -11 10 -5 0
-7 -4 -4 -10z"/>
<path d="M6302 4145 c0 -16 2 -22 5 -12 2 9 2 23 0 30 -3 6 -5 -1 -5 -18z"/>
<path d="M3091 1820 c0 -8 6 -53 15 -100 21 -117 44 -322 44 -395 0 -72 -11
-95 -34 -76 -14 12 -16 10 -16 -8 0 -12 10 -41 22 -64 l21 -42 8 29 c25 91 20
248 -16 486 -14 91 -42 201 -44 170z"/>
<path d="M2647 793 c-4 -3 -7 -11 -7 -17 0 -6 5 -5 12 2 6 6 9 14 7 17 -3 3
-9 2 -12 -2z"/>
<path d="M4850 2705 c0 -8 2 -15 4 -15 2 0 6 7 10 15 3 8 1 15 -4 15 -6 0 -10
-7 -10 -15z"/>
<path d="M7480 2450 c0 -5 5 -10 10 -10 6 0 10 5 10 10 0 6 -4 10 -10 10 -5 0
-10 -4 -10 -10z"/>
<path d="M5750 1019 c0 -6 -7 -17 -16 -24 -15 -10 -15 -22 -4 -121 7 -60 18
-115 24 -121 9 -10 12 -9 13 5 1 9 5 31 8 47 10 49 6 118 -8 127 -9 6 -9 10 2
17 9 6 10 14 3 27 -5 11 -7 24 -5 31 2 6 -1 14 -6 18 -6 3 -11 1 -11 -6z"/>
<path d="M8726 1761 c-4 -5 3 -7 14 -4 23 6 26 13 6 13 -8 0 -17 -4 -20 -9z"/>
<path d="M6060 822 c0 -11 65 -52 81 -52 17 0 9 19 -13 34 -32 20 -68 29 -68
18z"/>
<path d="M4848 813 c7 -3 16 -2 19 1 4 3 -2 6 -13 5 -11 0 -14 -3 -6 -6z"/>
<path d="M1550 594 c0 -6 11 -20 24 -31 24 -21 25 -21 45 -4 26 22 20 29 -21
25 -18 -2 -35 1 -40 8 -4 8 -8 8 -8 2z"/>
<path d="M6790 283 c8 -3 22 -11 30 -17 13 -10 13 -9 1 7 -7 9 -21 17 -30 16
-13 0 -14 -1 -1 -6z"/>
<path d="M7840 8994 c0 -3 5 -15 12 -27 6 -12 13 -44 15 -72 2 -27 7 -52 12
-55 9 -6 48 -121 60 -180 25 -117 41 -181 50 -197 14 -28 30 -84 37 -133 4
-25 10 -47 14 -50 4 -3 16 -41 28 -85 12 -44 39 -147 61 -230 37 -136 117
-390 140 -440 5 -11 15 -37 21 -57 6 -21 16 -38 21 -38 5 0 9 -15 9 -34 0 -19
5 -38 10 -41 6 -3 10 -15 10 -27 0 -11 6 -32 14 -46 8 -15 29 -63 46 -107 18
-44 36 -84 41 -89 5 -6 9 -20 9 -33 0 -13 7 -26 15 -29 9 -4 15 -19 15 -35 0
-30 31 -139 55 -194 7 -16 22 -50 32 -75 11 -25 24 -61 28 -80 4 -19 11 -37
14 -40 4 -3 17 -34 30 -70 12 -36 28 -78 36 -95 7 -16 21 -58 31 -92 10 -35
22 -63 26 -63 4 0 8 -5 8 -12 0 -40 67 -228 82 -228 4 0 8 -9 8 -20 0 -11 7
-23 15 -26 8 -4 15 -14 15 -23 0 -10 17 -53 38 -97 22 -43 53 -108 70 -144
l31 -65 1 1668 0 1667 -580 0 c-319 0 -580 -3 -580 -6z"/>
<path d="M0 8328 c0 -105 2 -189 4 -187 2 2 6 23 10 46 3 24 13 54 21 67 15
22 18 50 25 199 1 16 -42 67 -56 67 -2 0 -4 -86 -4 -192z"/>
<path d="M3635 8509 c-134 -26 -198 -43 -208 -54 -6 -7 -19 -10 -29 -7 -10 2
-18 -1 -18 -7 0 -7 -4 -9 -10 -6 -5 3 -10 1 -10 -4 0 -6 -8 -11 -18 -11 -42 0
-173 -111 -225 -190 -15 -23 -24 -26 -89 -29 -172 -7 -378 -92 -576 -238 -41
-30 -71 -57 -69 -60 3 -3 18 7 34 21 15 14 36 29 46 32 9 3 17 10 17 15 0 5 5
9 10 9 6 0 37 16 68 37 138 88 368 173 468 173 22 0 52 -7 68 -15 39 -21 43
-19 51 18 11 52 78 131 140 167 30 17 55 36 55 41 0 5 8 9 18 9 30 1 122 37
114 45 -4 4 3 5 15 2 12 -3 39 -1 60 3 21 4 61 11 88 15 39 6 46 9 30 16 -16
6 -13 8 15 8 25 1 31 -2 21 -8 -9 -6 47 -8 145 -6 220 4 210 3 198 15 -15 15
-345 22 -409 9z"/>
<path d="M6866 8389 c-207 -227 -322 -576 -302 -914 6 -99 21 -196 26 -170 1
6 2 94 1 197 -1 155 1 187 12 182 10 -3 18 8 25 38 71 272 148 495 199 573 30
45 103 129 108 123 1 -1 10 -18 19 -36 35 -68 47 -402 21 -577 -8 -55 -17
-122 -20 -150 l-5 -50 19 52 c33 89 45 227 38 464 -6 224 -11 251 -55 302 -23
26 -36 21 -86 -34z m-134 -261 c-7 -7 -12 -8 -12 -2 0 14 12 26 19 19 2 -3 -1
-11 -7 -17z m-21 -41 c-10 -9 -11 -8 -5 6 3 10 9 15 12 12 3 -3 0 -11 -7 -18z
m-20 -50 c-10 -9 -11 -8 -5 6 3 10 9 15 12 12 3 -3 0 -11 -7 -18z m-38 -130
c-15 -53 -28 -95 -31 -92 -5 5 10 67 35 148 26 83 23 46 -4 -56z m-36 -144
c-3 -10 -5 -4 -5 12 0 17 2 24 5 18 2 -7 2 -21 0 -30z m-10 -55 c-3 -7 -5 -2
-5 12 0 14 2 19 5 13 2 -7 2 -19 0 -25z"/>
<path d="M3755 8348 c-134 -26 -355 -82 -425 -108 -43 -16 -118 -49 -166 -73
-49 -24 -107 -50 -129 -57 -177 -56 -450 -185 -546 -257 -36 -26 -102 -74
-149 -106 -97 -66 -167 -123 -159 -131 2 -3 47 29 99 70 151 121 247 179 447
272 70 33 171 77 223 97 52 21 158 66 235 100 188 84 367 139 635 194 33 6 37
9 15 9 -16 0 -52 -5 -80 -10z"/>
<path d="M4178 8003 c7 -3 16 -2 19 1 4 3 -2 6 -13 5 -11 0 -14 -3 -6 -6z"/>
<path d="M4440 7950 c0 -6 7 -10 15 -10 8 0 15 2 15 4 0 2 -7 6 -15 10 -8 3
-15 1 -15 -4z"/>
<path d="M5680 7920 c28 -22 40 -25 40 -10 0 6 -12 15 -26 20 -38 15 -42 12
-14 -10z"/>
<path d="M2330 7870 c-8 -5 -11 -12 -7 -16 4 -4 15 0 24 9 18 18 8 23 -17 7z"/>
<path d="M6367 7843 c-4 -3 -7 -11 -7 -17 0 -6 5 -5 12 2 6 6 9 14 7 17 -3 3
-9 2 -12 -2z"/>
<path d="M2280 7815 c-13 -14 -20 -25 -15 -25 7 0 45 39 45 47 0 7 -8 2 -30
-22z"/>
<path d="M6325 7740 c3 -5 8 -10 11 -10 2 0 4 5 4 10 0 6 -5 10 -11 10 -5 0
-7 -4 -4 -10z"/>
<path d="M2184 7708 c-45 -49 -58 -68 -46 -68 5 0 26 23 46 50 42 58 42 63 0
18z"/>
<path d="M6352 7710 c0 -14 2 -19 5 -12 2 6 2 18 0 25 -3 6 -5 1 -5 -13z"/>
<path d="M3120 7585 c0 -9 5 -15 11 -13 6 2 11 8 11 13 0 5 -5 11 -11 13 -6 2
-11 -4 -11 -13z"/>
<path d="M3120 7549 c0 -5 5 -7 10 -4 6 3 10 8 10 11 0 2 -4 4 -10 4 -5 0 -10
-5 -10 -11z"/>
<path d="M6600 7263 c0 -6 -3 -18 -6 -27 -4 -11 -1 -16 10 -16 9 0 16 6 16 13
0 16 -20 46 -20 30z"/>
<path d="M2280 7233 c0 -5 -15 -24 -33 -43 -40 -42 -67 -81 -67 -95 0 -5 9 4
19 20 10 17 35 48 55 70 33 37 43 55 31 55 -3 0 -5 -3 -5 -7z"/>
<path d="M6690 7112 l-23 -18 28 -22 c20 -16 23 -22 11 -22 -9 0 -16 -1 -16
-2 2 -20 41 -153 47 -159 5 -5 44 -3 90 5 44 8 91 12 104 9 17 -3 31 3 47 19
l22 24 -30 41 c-36 49 -116 104 -183 127 -60 20 -70 20 -97 -2z"/>
<path d="M405 7057 c-117 -62 -163 -92 -302 -199 -57 -44 -103 -86 -103 -94 0
-10 21 2 61 33 114 91 274 203 352 245 89 49 116 67 102 67 -5 1 -55 -23 -110
-52z"/>
<path d="M6455 7039 c-65 -62 -108 -143 -103 -198 4 -47 18 -49 164 -20 l114
22 -6 36 c-8 40 -50 190 -56 196 -1 2 -15 6 -30 10 -23 6 -35 -1 -83 -46z"/>
<path d="M1534 6908 l-19 -23 23 19 c12 11 22 21 22 23 0 8 -8 2 -26 -19z"/>
<path d="M1472 6833 c-122 -146 -269 -432 -317 -614 -14 -54 -4 -255 17 -319
31 -99 120 -220 161 -220 6 0 -8 18 -33 39 -100 86 -147 260 -121 453 12 90
74 272 128 373 36 68 158 263 190 303 40 50 20 38 -25 -15z"/>
<path d="M1506 6777 c-64 -76 -156 -200 -155 -212 0 -5 11 4 24 20 54 67 185
245 181 245 -2 0 -25 -24 -50 -53z"/>
<path d="M445 6793 c-11 -3 -40 -22 -65 -42 -24 -20 -65 -49 -90 -65 -25 -16
-47 -31 -50 -35 -3 -3 -23 -20 -45 -37 -33 -25 -43 -29 -52 -18 -7 7 -37 18
-67 24 -31 6 -55 15 -53 20 1 4 -2 10 -8 12 -5 1 -11 -7 -13 -19 -2 -17 2 -23
15 -24 16 0 16 -1 -2 -9 -18 -8 -18 -9 5 -10 l25 -1 -22 -11 c-23 -11 -23 -14
-23 -195 0 -100 2 -183 5 -183 3 0 32 19 63 42 73 53 186 167 242 243 24 33
82 101 130 150 47 50 96 104 109 120 23 30 24 30 144 36 117 5 115 5 -53 6
-96 0 -184 -2 -195 -4z m-320 -203 c-3 -5 -14 -10 -23 -10 -15 0 -15 2 -2 10
20 13 33 13 25 0z"/>
<path d="M40 6654 c0 -8 5 -12 10 -9 6 4 8 11 5 16 -9 14 -15 11 -15 -7z"/>
<path d="M1805 6538 c-33 -56 -68 -119 -78 -141 -12 -25 -23 -37 -32 -33 -9 3
-12 0 -9 -9 10 -26 32 -4 79 83 26 48 61 111 77 141 51 93 25 64 -37 -41z"/>
<path d="M1491 6403 c-23 -101 -42 -235 -55 -399 -15 -174 -22 -203 -74 -314
-56 -118 -172 -647 -193 -884 -16 -174 -7 -438 19 -552 61 -263 155 -454 289
-591 49 -50 48 -39 -2 22 -54 67 -105 145 -145 224 -96 192 -139 366 -147 606
-10 271 19 492 110 860 19 77 38 158 42 180 10 57 42 147 82 228 29 59 35 83
39 156 7 133 24 307 40 410 16 101 13 132 -5 54z"/>
<path d="M2681 6414 c0 -11 3 -14 6 -6 3 7 2 16 -1 19 -3 4 -6 -2 -5 -13z"/>
<path d="M1595 6345 c2 -33 1 -51 -2 -40 -3 11 -10 25 -15 30 -7 7 -8 3 -5
-10 22 -75 20 -83 -17 -76 -10 2 -26 -18 -26 -33 0 -4 7 -6 15 -2 8 3 15 1 15
-4 0 -6 -9 -10 -19 -10 -20 0 -22 -6 -37 -92 -3 -21 -10 -38 -15 -38 -5 0 -9
-16 -9 -36 0 -21 4 -33 10 -29 6 3 10 1 10 -4 0 -6 -7 -11 -15 -11 -8 0 -15
-5 -15 -11 0 -5 5 -7 12 -3 8 5 9 1 5 -12 -5 -13 0 -11 18 9 22 25 30 46 26
70 -1 4 6 10 14 13 8 4 15 11 15 17 0 5 11 24 23 41 26 33 42 102 26 111 -5 4
-8 18 -8 33 2 24 2 24 6 4 6 -33 23 -17 23 23 0 39 25 55 36 22 4 -12 2 -23
-5 -25 -6 -2 -11 -12 -11 -23 0 -10 -4 -19 -10 -19 -5 0 -10 -4 -10 -10 0 -23
18 -7 38 35 25 51 27 59 12 50 -6 -4 -10 6 -10 24 0 27 -2 29 -34 27 -29 -3
-36 1 -39 18 -3 12 -3 -6 -2 -39z"/>
<path d="M1562 6280 c0 -14 2 -19 5 -12 2 6 2 18 0 25 -3 6 -5 1 -5 -13z"/>
<path d="M266 6084 c-8 -21 -8 -69 0 -61 7 7 15 77 10 77 -2 0 -7 -7 -10 -16z"/>
<path d="M601 6068 c0 -9 -4 -25 -7 -35 -5 -14 -4 -15 5 -7 7 7 11 22 8 35 -2
13 -5 16 -6 7z"/>
<path d="M1111 6023 c-6 -21 -11 -72 -11 -114 0 -113 42 -222 120 -308 40 -45
38 -32 -5 27 -18 26 -48 84 -66 127 -31 77 -31 84 -27 192 3 62 4 113 2 113
-2 0 -8 -17 -13 -37z"/>
<path d="M251 5974 c0 -11 3 -14 6 -6 3 7 2 16 -1 19 -3 4 -6 -2 -5 -13z"/>
<path d="M8038 5953 c7 -3 16 -2 19 1 4 3 -2 6 -13 5 -11 0 -14 -3 -6 -6z"/>
<path d="M0 5895 c0 -46 6 -69 25 -100 27 -45 33 -36 10 18 -8 20 -15 53 -15
74 0 21 -5 45 -10 53 -7 11 -10 -3 -10 -45z"/>
<path d="M290 5843 c0 -12 -5 -25 -11 -29 -8 -5 -8 -8 0 -14 13 -7 4 -40 -10
-40 -5 0 -9 9 -9 20 0 11 -4 20 -9 20 -5 0 -11 10 -14 23 -3 21 -4 21 -12 3
-6 -13 -5 -21 3 -24 7 -2 12 -12 12 -23 0 -10 4 -19 8 -19 5 0 8 -31 8 -70 -1
-44 -5 -70 -12 -70 -6 0 -14 -19 -17 -42 -6 -37 -3 -46 17 -63 51 -43 66 -55
74 -54 22 4 42 -2 40 -12 -2 -6 2 -13 8 -16 15 -5 25 35 10 41 -6 3 -2 4 9 4
50 -3 63 3 69 28 4 16 13 25 24 23 30 -3 35 1 23 15 -9 10 -8 15 4 19 8 4 12
12 9 20 -2 7 0 24 6 38 9 20 10 15 7 -29 -2 -29 -1 -50 2 -46 9 8 17 174 9
174 -4 0 -9 -10 -11 -22 -2 -13 -5 2 -5 32 0 35 2 48 7 36 7 -18 8 -18 14 -2
11 29 8 35 -20 38 -20 2 -28 8 -27 21 1 9 -2 17 -7 17 -5 0 -9 -9 -9 -20 0
-11 5 -20 10 -20 6 0 10 -10 9 -22 0 -13 -3 -17 -6 -10 -3 7 -23 12 -49 12
-50 0 -53 5 -22 31 l21 19 -41 0 c-22 0 -47 -6 -54 -13 -14 -14 -58 -20 -58
-8 0 4 4 11 10 17 6 6 6 15 0 24 -8 12 -10 11 -10 -7z m20 -323 c0 -5 -2 -10
-4 -10 -3 0 -8 5 -11 10 -3 6 -1 10 4 10 6 0 11 -4 11 -10z"/>
<path d="M2086 5795 c4 -8 8 -15 10 -15 2 0 4 7 4 15 0 8 -4 15 -10 15 -5 0
-7 -7 -4 -15z"/>
<path d="M8245 5769 c-4 -6 -5 -12 -2 -15 2 -3 7 2 10 11 7 17 1 20 -8 4z"/>
<path d="M410 5460 c0 -5 5 -10 11 -10 5 0 7 5 4 10 -3 6 -8 10 -11 10 -2 0
-4 -4 -4 -10z"/>
<path d="M8846 5253 c-17 -51 -103 -206 -144 -260 -13 -18 -19 -33 -13 -33 6
0 11 4 11 8 0 5 11 21 24 37 55 64 159 276 143 292 -3 2 -12 -18 -21 -44z"/>
<path d="M1866 5277 c3 -10 9 -15 12 -12 3 3 0 11 -7 18 -10 9 -11 8 -5 -6z"/>
<path d="M206 5190 c3 -14 10 -29 15 -34 14 -16 10 6 -7 34 l-15 25 7 -25z"/>
<path d="M13 5183 c-9 -3 -13 -34 -13 -103 0 -112 8 -122 75 -100 69 23 102
92 73 155 -19 43 -89 67 -135 48z m85 -55 c-4 -29 -38 -38 -38 -10 0 22 8 32
27 32 9 0 13 -8 11 -22z"/>
<path d="M246 5097 c3 -10 9 -15 12 -12 3 3 0 11 -7 18 -10 9 -11 8 -5 -6z"/>
<path d="M8974 5044 c-16 -24 -16 -26 2 -44 19 -19 19 -19 20 25 0 25 -1 45
-2 45 -2 0 -11 -12 -20 -26z"/>
<path d="M8852 4810 c-39 -18 -43 -22 -40 -52 3 -29 11 -36 92 -80 49 -26 92
-46 94 -43 10 10 -18 30 -91 65 -89 43 -100 69 -37 94 22 9 61 16 85 16 25 0
45 5 45 10 0 18 -103 11 -148 -10z"/>
<path d="M1651 4323 c-10 -26 -10 -27 4 -9 8 11 15 23 15 28 0 15 -7 8 -19
-19z"/>
<path d="M1294 4053 c49 -130 229 -333 366 -413 128 -75 216 -102 354 -108
118 -5 119 -5 95 -23 -13 -10 -29 -19 -35 -19 -11 0 -42 -30 -31 -30 10 0 167
91 173 101 12 20 -4 20 -46 -2 -37 -19 -52 -21 -133 -16 -286 17 -505 158
-684 440 -54 84 -72 106 -59 70z"/>
<path d="M6845 3961 c5 -36 51 -138 66 -147 16 -9 9 20 -12 55 -11 19 -29 55
-40 80 -18 42 -19 43 -14 12z"/>
<path d="M7257 3804 c-54 -28 -84 -36 -150 -41 -73 -6 -78 -8 -42 -14 22 -4
62 -2 90 3 50 11 159 61 170 78 8 13 9 14 -68 -26z"/>
<path d="M0 3819 c0 -9 9 -24 20 -34 26 -23 26 -4 0 26 -15 18 -19 20 -20 8z"/>
<path d="M6988 3768 c5 -5 16 -8 23 -6 8 3 3 7 -10 11 -17 4 -21 3 -13 -5z"/>
<path d="M7201 3558 c-44 -12 -114 -60 -140 -97 -23 -32 -42 -106 -34 -129 4
-9 12 7 20 39 8 30 26 70 42 89 24 30 94 75 142 92 28 10 3 15 -30 6z"/>
<path d="M1995 3450 c-13 -6 -15 -9 -5 -9 8 0 22 4 30 9 18 12 2 12 -25 0z"/>
<path d="M1948 3433 c7 -3 16 -2 19 1 4 3 -2 6 -13 5 -11 0 -14 -3 -6 -6z"/>
<path d="M1205 3298 c-30 -17 -111 -98 -98 -98 7 0 18 8 25 18 7 10 35 35 62
55 47 36 53 49 11 25z"/>
<path d="M7040 3289 c0 -17 26 -57 33 -49 2 3 -4 19 -14 35 -11 17 -19 23 -19
14z"/>
<path d="M6317 3177 c-3 -8 1 -14 9 -14 8 0 14 6 14 14 0 7 -4 13 -9 13 -5 0
-11 -6 -14 -13z"/>
<path d="M8807 3123 c-19 -40 -22 -66 -22 -158 0 -105 2 -113 37 -187 42 -89
86 -156 140 -211 l38 -39 0 168 -1 169 -63 -69 -64 -70 -21 42 c-61 120 -63
250 -6 385 4 10 3 17 -4 17 -7 0 -22 -21 -34 -47z"/>
<path d="M6347 3133 c-4 -3 -7 -11 -7 -17 0 -6 5 -5 12 2 6 6 9 14 7 17 -3 3
-9 2 -12 -2z"/>
<path d="M0 3059 c0 -19 41 -121 47 -116 2 2 -8 33 -21 68 -14 35 -25 57 -26
48z"/>
<path d="M7431 2894 c0 -11 3 -14 6 -6 3 7 2 16 -1 19 -3 4 -6 -2 -5 -13z"/>
<path d="M7536 2774 c-17 -17 -22 -64 -6 -64 10 0 40 52 40 70 0 15 -16 12
-34 -6z"/>
<path d="M69 2655 c-3 -23 -11 -31 -36 -39 l-33 -9 0 -213 c0 -118 2 -214 5
-214 3 0 25 16 50 35 25 18 58 41 73 50 15 9 45 40 67 67 22 28 52 64 68 81
15 16 31 47 36 68 9 38 8 39 -25 45 -19 3 -34 12 -34 19 0 7 -14 18 -30 25
-17 7 -37 22 -45 34 -8 11 -15 15 -15 8 0 -6 -9 -12 -19 -12 -11 0 -21 -6 -24
-12 -2 -7 -8 1 -12 17 -4 17 -10 41 -15 55 l-7 25 -4 -30z m211 -145 c0 -5 -2
-10 -4 -10 -3 0 -8 5 -11 10 -3 6 -1 10 4 10 6 0 11 -4 11 -10z"/>
<path d="M6888 1863 c7 -3 16 -2 19 1 4 3 -2 6 -13 5 -11 0 -14 -3 -6 -6z"/>
<path d="M8500 1530 c0 -5 5 -10 10 -10 6 0 10 5 10 10 0 6 -4 10 -10 10 -5 0
-10 -4 -10 -10z"/>
<path d="M4955 500 c3 -5 13 -10 21 -10 8 0 14 5 14 10 0 6 -9 10 -21 10 -11
0 -17 -4 -14 -10z"/>
<path d="M5165 460 c-8 -13 5 -13 25 0 13 8 13 10 -2 10 -9 0 -20 -4 -23 -10z"/>
<path d="M5225 460 c-19 -8 -19 -9 3 -9 12 -1 22 4 22 9 0 6 -1 10 -2 9 -2 0
-12 -4 -23 -9z"/>
<path d="M5063 443 c15 -2 37 -2 50 0 12 2 0 4 -28 4 -27 0 -38 -2 -22 -4z"/>
<path d="M4950 426 c0 -9 40 -13 46 -5 3 5 -6 9 -20 9 -14 0 -26 -2 -26 -4z"/>
<path d="M5400 410 c-38 -6 -40 -7 -15 -10 17 -1 36 -2 44 -1 7 2 10 -2 7 -8
-8 -12 25 -31 51 -30 10 0 2 5 -17 11 l-35 11 35 13 c19 7 27 13 18 13 -9 1
-22 3 -30 4 -7 2 -33 1 -58 -3z"/>
<path d="M5528 403 c7 -3 16 -2 19 1 4 3 -2 6 -13 5 -11 0 -14 -3 -6 -6z"/>
<path d="M5178 386 c-10 -10 -18 -21 -18 -26 0 -5 8 -16 18 -26 16 -17 17 -17
20 4 2 12 2 32 0 44 -3 21 -4 21 -20 4z"/>
<path d="M5016 374 c-3 -8 -10 -12 -16 -9 -5 3 -10 2 -10 -3 0 -5 11 -9 24 -9
18 0 22 4 19 18 -6 23 -9 24 -17 3z"/>
<path d="M5503 383 c9 -2 23 -2 30 0 6 3 -1 5 -18 5 -16 0 -22 -2 -12 -5z"/>
<path d="M5014 314 c9 -6 14 -14 11 -17 -3 -4 -2 -5 2 -2 15 12 10 31 -9 31
-17 0 -17 -2 -4 -12z"/>
<path d="M5038 268 c8 -8 18 -8 34 -1 21 9 20 10 -11 11 -25 0 -31 -2 -23 -10z"/>
<path d="M5093 253 c-8 -3 -7 -14 4 -41 21 -51 28 -56 48 -35 17 17 17 18 -6
23 -16 4 -24 13 -24 27 0 25 -6 32 -22 26z"/>
<path d="M5075 193 c18 -42 25 -52 25 -34 0 14 -28 71 -35 71 -3 0 2 -17 10
-37z"/>
<path d="M5240 195 c0 -3 16 -21 35 -40 33 -33 85 -48 85 -25 0 6 -9 10 -20
10 -11 0 -20 5 -20 10 0 6 -8 10 -18 10 -10 0 -24 9 -32 20 -13 19 -30 27 -30
15z"/>
<path d="M5100 130 c0 -5 5 -10 10 -10 6 0 10 5 10 10 0 6 -4 10 -10 10 -5 0
-10 -4 -10 -10z"/>
<path d="M5175 112 c6 -4 10 -14 10 -22 0 -9 11 -16 28 -18 32 -4 37 -22 5
-22 -22 0 -22 0 4 -25 15 -14 33 -25 39 -25 7 0 2 8 -9 19 -23 19 -20 31 10
31 10 0 18 5 18 10 0 6 -9 10 -19 10 -11 0 -23 5 -27 11 -3 6 -14 9 -24 6 -13
-3 -17 0 -13 9 2 7 12 15 21 17 10 3 1 5 -18 6 -19 0 -30 -3 -25 -7z"/>
<path d="M5255 100 c-3 -5 1 -10 9 -10 9 0 16 5 16 10 0 6 -4 10 -9 10 -6 0
-13 -4 -16 -10z"/>
</g>
</svg>
